<?xml version="1.0" standalone="no"?>
<!DOCTYPE svg PUBLIC "-//W3C//DTD SVG 1.1//EN" "http://www.w3.org/Graphics/SVG/1.1/DTD/svg11.dtd" >
<svg xmlns="http://www.w3.org/2000/svg" xmlns:xlink="http://www.w3.org/1999/xlink" version="1.1">
<metadata>
Created by FontForge 20201107 at Wed Jan 31 19:51:12 2024
 By 
Copyright (c) 2022 by Eko Bimantara. All rights reserved.
</metadata>
<defs>
<font id="SolidenTrial-BlackExpanded" horiz-adv-x="1486" >
  <font-face 
    font-family="Soliden Trial Black Exp"
    font-weight="900"
    font-stretch="expanded"
    units-per-em="2048"
    panose-1="0 0 0 0 0 0 0 0 0 0"
    ascent="1638"
    descent="-410"
    x-height="1147"
    cap-height="1331"
    bbox="-182 -481.442 3330 1925"
    underline-thickness="102"
    underline-position="-255"
    unicode-range="U+000D-2265"
  />
<missing-glyph horiz-adv-x="1728" 
d="M184 0v1360h1360v-1360h-1360zM426 354h375l43 -102h176q129 0 200.5 54.5t71.5 154.5q0 160 -155 209q125 71 125 188q0 93 -73 145t-200 52h-125l-10 53h-428v-754zM854 825h-262v127h229l23 -53h117q55 0 78.5 -26.5t23.5 -57.5q0 -38 -21.5 -65t-70.5 -27h-97z
M592 670h219l33 -86h155q107 0 107 -82q0 -37 -23 -65.5t-73 -28.5h-136l-20 104h-262v158z" />
    <glyph glyph-name=".notdef" horiz-adv-x="1728" 
d="M184 0v1360h1360v-1360h-1360zM426 354h375l43 -102h176q129 0 200.5 54.5t71.5 154.5q0 160 -155 209q125 71 125 188q0 93 -73 145t-200 52h-125l-10 53h-428v-754zM854 825h-262v127h229l23 -53h117q55 0 78.5 -26.5t23.5 -57.5q0 -38 -21.5 -65t-70.5 -27h-97z
M592 670h219l33 -86h155q107 0 107 -82q0 -37 -23 -65.5t-73 -28.5h-136l-20 104h-262v158z" />
    <glyph glyph-name="uni0000" horiz-adv-x="0" 
 />
    <glyph glyph-name="uni0000" horiz-adv-x="0" 
 />
    <glyph glyph-name="uni000D" unicode="&#xd;" horiz-adv-x="512" 
 />
    <glyph glyph-name="space" unicode=" " horiz-adv-x="532" 
 />
    <glyph glyph-name="exclam" unicode="!" horiz-adv-x="634" 
d="M154 426l-52 926h430l-51 -926h-327zM121 160q0 80 53.5 131t136.5 51q90 0 145.5 -51t55.5 -131q0 -79 -55.5 -129.5t-145.5 -50.5q-83 0 -136.5 51t-53.5 129z" />
    <glyph glyph-name="quotedbl" unicode="&#x22;" horiz-adv-x="749" 
d="M61 903v531h308l-103 -531h-205zM412 903v531h307l-103 -531h-204z" />
    <glyph glyph-name="numbersign" unicode="#" horiz-adv-x="1538" 
d="M379 -41h-330l125 346h-154v297h261l47 131h-226v297h332l123 342h330l-123 -342h285l122 342h330l-123 -342h140v-297h-246l-47 -131h211v-297h-318l-125 -346h-329l124 346h-284zM610 602h285l47 131h-285z" />
    <glyph glyph-name="dollar" unicode="$" horiz-adv-x="1449" 
d="M1368 418q0 -339 -465 -389v-375h-368v379q-466 61 -451 456h408q5 -77 68.5 -109.5t207.5 -31.5q98 1 140 18t42 54q0 22 -13.5 38t-33 26.5t-55.5 19t-66 12.5t-80 10q-204 20 -284 38q-241 54 -304 210q-24 59 -24 135q0 330 445 389v265h368v-263q221 -26 329 -131
t122 -303h-410q-22 117 -225 117q-91 0 -141 -22.5t-50 -63.5q0 -24 16.5 -40.5t51.5 -27t70.5 -16t91.5 -10.5q199 -20 273 -36q242 -52 309 -203q28 -64 28 -146z" />
    <glyph glyph-name="percent" unicode="%" horiz-adv-x="2373" 
d="M82 981q0 116 66 201.5t173.5 127.5t239.5 42t239 -42t172.5 -127.5t65.5 -201.5t-65.5 -201t-172.5 -126.5t-239 -41.5t-239.5 41.5t-173.5 126.5t-66 201zM557 0l909 1331h351l-910 -1331h-350zM410 981q0 -133 151 -133q150 0 150 133q0 135 -150 135
q-151 0 -151 -135zM1335 348q0 116 66.5 201.5t174 127.5t239.5 42t239 -42t172.5 -127.5t65.5 -201.5t-65.5 -201t-172.5 -126t-239 -41q-133 0 -240 41t-173.5 126t-66.5 201zM1663 348q0 -61 36.5 -97t115.5 -36q149 0 149 133q0 135 -149 135q-152 0 -152 -135z" />
    <glyph glyph-name="ampersand" unicode="&#x26;" horiz-adv-x="1681" 
d="M123 956q0 189 166.5 292.5t474.5 103.5q322 0 485.5 -111t177.5 -334h-409q-12 117 -244 117q-97 0 -155 -31.5t-58 -83.5q0 -68 65 -97.5t214 -29.5h759v-241h-153v-541q-79 -7 -294.5 -13.5t-356.5 -6.5q-329 0 -521 107t-192 290q0 218 233 295q-192 98 -192 284z
M1016 311v230h-189q-163 0 -235 -28t-72 -91q0 -54 63.5 -84.5t176.5 -30.5q18 0 256 4z" />
    <glyph glyph-name="quotesingle" unicode="'" horiz-adv-x="399" 
d="M61 903v531h308l-103 -531h-205z" />
    <glyph glyph-name="parenleft" unicode="(" horiz-adv-x="710" 
d="M451 586q0 -432 219 -815h-369q-219 383 -219 817q0 427 219 825h369q-106 -194 -162.5 -394t-56.5 -433z" />
    <glyph glyph-name="parenright" unicode=")" horiz-adv-x="710" 
d="M260 586q0 233 -56.5 433t-162.5 394h369q219 -398 219 -825q0 -434 -219 -817h-369q219 383 219 815z" />
    <glyph glyph-name="asterisk" unicode="*" horiz-adv-x="958" 
d="M369 1329h221v-203l192 121l115 -186l-213 -133l213 -133l-115 -187l-192 121v-203h-221v203l-193 -121l-115 187l213 133l-213 133l115 186l193 -121v203z" />
    <glyph glyph-name="plus" unicode="+" horiz-adv-x="1116" 
d="M82 479v266h342v283h266v-283h344v-266h-344v-280h-266v280h-342z" />
    <glyph glyph-name="comma" unicode="," horiz-adv-x="471" 
d="M82 -231v530h307l-102 -530h-205z" />
    <glyph glyph-name="hyphen" unicode="-" horiz-adv-x="808" 
d="M82 479v266h645v-266h-645z" />
    <glyph glyph-name="period" unicode="." horiz-adv-x="532" 
d="M82 160q0 79 51 130.5t129 51.5q84 0 136.5 -51t52.5 -131q0 -79 -52.5 -129.5t-136.5 -50.5q-78 0 -129 51t-51 129z" />
    <glyph glyph-name="slash" unicode="/" horiz-adv-x="899" 
d="M391 -41h-391l508 1413h391z" />
    <glyph glyph-name="zero" unicode="0" horiz-adv-x="1728" 
d="M184 0v1360h1360v-1360h-1360zM426 354h375l43 -102h176q129 0 200.5 54.5t71.5 154.5q0 160 -155 209q125 71 125 188q0 93 -73 145t-200 52h-125l-10 53h-428v-754zM854 825h-262v127h229l23 -53h117q55 0 78.5 -26.5t23.5 -57.5q0 -38 -21.5 -65t-70.5 -27h-97z
M592 670h219l33 -86h155q107 0 107 -82q0 -37 -23 -65.5t-73 -28.5h-136l-20 104h-262v158z" />
    <glyph glyph-name="one" unicode="1" horiz-adv-x="1728" 
d="M184 0v1360h1360v-1360h-1360zM426 354h375l43 -102h176q129 0 200.5 54.5t71.5 154.5q0 160 -155 209q125 71 125 188q0 93 -73 145t-200 52h-125l-10 53h-428v-754zM854 825h-262v127h229l23 -53h117q55 0 78.5 -26.5t23.5 -57.5q0 -38 -21.5 -65t-70.5 -27h-97z
M592 670h219l33 -86h155q107 0 107 -82q0 -37 -23 -65.5t-73 -28.5h-136l-20 104h-262v158z" />
    <glyph glyph-name="two" unicode="2" horiz-adv-x="1728" 
d="M184 0v1360h1360v-1360h-1360zM426 354h375l43 -102h176q129 0 200.5 54.5t71.5 154.5q0 160 -155 209q125 71 125 188q0 93 -73 145t-200 52h-125l-10 53h-428v-754zM854 825h-262v127h229l23 -53h117q55 0 78.5 -26.5t23.5 -57.5q0 -38 -21.5 -65t-70.5 -27h-97z
M592 670h219l33 -86h155q107 0 107 -82q0 -37 -23 -65.5t-73 -28.5h-136l-20 104h-262v158z" />
    <glyph glyph-name="three" unicode="3" horiz-adv-x="1728" 
d="M184 0v1360h1360v-1360h-1360zM426 354h375l43 -102h176q129 0 200.5 54.5t71.5 154.5q0 160 -155 209q125 71 125 188q0 93 -73 145t-200 52h-125l-10 53h-428v-754zM854 825h-262v127h229l23 -53h117q55 0 78.5 -26.5t23.5 -57.5q0 -38 -21.5 -65t-70.5 -27h-97z
M592 670h219l33 -86h155q107 0 107 -82q0 -37 -23 -65.5t-73 -28.5h-136l-20 104h-262v158z" />
    <glyph glyph-name="four" unicode="4" horiz-adv-x="1728" 
d="M184 0v1360h1360v-1360h-1360zM426 354h375l43 -102h176q129 0 200.5 54.5t71.5 154.5q0 160 -155 209q125 71 125 188q0 93 -73 145t-200 52h-125l-10 53h-428v-754zM854 825h-262v127h229l23 -53h117q55 0 78.5 -26.5t23.5 -57.5q0 -38 -21.5 -65t-70.5 -27h-97z
M592 670h219l33 -86h155q107 0 107 -82q0 -37 -23 -65.5t-73 -28.5h-136l-20 104h-262v158z" />
    <glyph glyph-name="five" unicode="5" horiz-adv-x="1728" 
d="M184 0v1360h1360v-1360h-1360zM426 354h375l43 -102h176q129 0 200.5 54.5t71.5 154.5q0 160 -155 209q125 71 125 188q0 93 -73 145t-200 52h-125l-10 53h-428v-754zM854 825h-262v127h229l23 -53h117q55 0 78.5 -26.5t23.5 -57.5q0 -38 -21.5 -65t-70.5 -27h-97z
M592 670h219l33 -86h155q107 0 107 -82q0 -37 -23 -65.5t-73 -28.5h-136l-20 104h-262v158z" />
    <glyph glyph-name="six" unicode="6" horiz-adv-x="1728" 
d="M184 0v1360h1360v-1360h-1360zM426 354h375l43 -102h176q129 0 200.5 54.5t71.5 154.5q0 160 -155 209q125 71 125 188q0 93 -73 145t-200 52h-125l-10 53h-428v-754zM854 825h-262v127h229l23 -53h117q55 0 78.5 -26.5t23.5 -57.5q0 -38 -21.5 -65t-70.5 -27h-97z
M592 670h219l33 -86h155q107 0 107 -82q0 -37 -23 -65.5t-73 -28.5h-136l-20 104h-262v158z" />
    <glyph glyph-name="seven" unicode="7" horiz-adv-x="1728" 
d="M184 0v1360h1360v-1360h-1360zM426 354h375l43 -102h176q129 0 200.5 54.5t71.5 154.5q0 160 -155 209q125 71 125 188q0 93 -73 145t-200 52h-125l-10 53h-428v-754zM854 825h-262v127h229l23 -53h117q55 0 78.5 -26.5t23.5 -57.5q0 -38 -21.5 -65t-70.5 -27h-97z
M592 670h219l33 -86h155q107 0 107 -82q0 -37 -23 -65.5t-73 -28.5h-136l-20 104h-262v158z" />
    <glyph glyph-name="eight" unicode="8" horiz-adv-x="1728" 
d="M184 0v1360h1360v-1360h-1360zM426 354h375l43 -102h176q129 0 200.5 54.5t71.5 154.5q0 160 -155 209q125 71 125 188q0 93 -73 145t-200 52h-125l-10 53h-428v-754zM854 825h-262v127h229l23 -53h117q55 0 78.5 -26.5t23.5 -57.5q0 -38 -21.5 -65t-70.5 -27h-97z
M592 670h219l33 -86h155q107 0 107 -82q0 -37 -23 -65.5t-73 -28.5h-136l-20 104h-262v158z" />
    <glyph glyph-name="nine" unicode="9" horiz-adv-x="1728" 
d="M184 0v1360h1360v-1360h-1360zM426 354h375l43 -102h176q129 0 200.5 54.5t71.5 154.5q0 160 -155 209q125 71 125 188q0 93 -73 145t-200 52h-125l-10 53h-428v-754zM854 825h-262v127h229l23 -53h117q55 0 78.5 -26.5t23.5 -57.5q0 -38 -21.5 -65t-70.5 -27h-97z
M592 670h219l33 -86h155q107 0 107 -82q0 -37 -23 -65.5t-73 -28.5h-136l-20 104h-262v158z" />
    <glyph glyph-name="colon" unicode=":" horiz-adv-x="614" 
d="M123 985q0 79 51 130.5t129 51.5q84 0 136.5 -51t52.5 -131q0 -79 -52.5 -129.5t-136.5 -50.5q-78 0 -129 51t-51 129zM123 160q0 79 51 130.5t129 51.5q84 0 136.5 -51t52.5 -131q0 -79 -52.5 -129.5t-136.5 -50.5q-78 0 -129 51t-51 129z" />
    <glyph glyph-name="semicolon" unicode=";" horiz-adv-x="614" 
d="M123 985q0 79 51 130.5t129 51.5q84 0 136.5 -51t52.5 -131q0 -79 -52.5 -129.5t-136.5 -50.5q-78 0 -129 51t-51 129zM154 -231v530h307l-103 -530h-204z" />
    <glyph glyph-name="less" unicode="&#x3c;" horiz-adv-x="1138" 
d="M82 801l975 311v-270l-584 -180l584 -181v-270l-975 311v279z" />
    <glyph glyph-name="equal" unicode="=" horiz-adv-x="1013" 
d="M82 711v245h850v-245h-850zM82 338v246h850v-246h-850z" />
    <glyph glyph-name="greater" unicode="&#x3e;" horiz-adv-x="1138" 
d="M1057 801v-279l-975 -311v270l584 181l-584 180v270z" />
    <glyph glyph-name="question" unicode="?" horiz-adv-x="1447" 
d="M893 403h-401q-28 77 -19.5 129t45.5 93.5t87.5 68.5t107 53.5t104.5 49t79.5 56t31.5 73.5q0 98 -201 98q-220 0 -235 -117h-410q8 112 47 193t116.5 138.5t200.5 85.5t295 28q304 0 464.5 -99.5t160.5 -285.5q0 -79 -30 -143.5t-77 -105.5t-102.5 -74.5t-108.5 -59.5
t-93.5 -51t-58.5 -57.5t-3 -72.5zM524 150q0 75 54 123.5t137 48.5q90 0 145 -48t55 -124q0 -74 -55 -122t-145 -48q-83 0 -137 48t-54 122z" />
    <glyph glyph-name="at" unicode="@" horiz-adv-x="2127" 
d="M909 1096q181 0 301 -99v80h342v-495q0 -126 29.5 -175t104.5 -49q63 0 104 89t41 225q0 209 -96 355t-266.5 217t-403.5 71q-229 0 -403.5 -87.5t-269.5 -248t-95 -371.5q0 -210 98.5 -370t278.5 -247t416 -87q282 0 454 116l94 -198q-218 -133 -546 -133
q-300 0 -529.5 114.5t-355 323t-125.5 481.5q0 205 71 377t199 292t311 186.5t402 66.5q221 0 401.5 -57t309.5 -164.5t199.5 -270t70.5 -366.5q0 -258 -110 -397.5t-314 -139.5q-112 0 -200.5 42t-141.5 118q-67 -100 -150.5 -141t-214.5 -41q-214 0 -331 129t-117 364
q0 232 116.5 361t325.5 129zM1210 569v70q-28 57 -91.5 84t-125.5 27q-91 0 -134.5 -35.5t-43.5 -108.5q0 -145 170 -145q62 0 131 28t94 80z" />
    <glyph glyph-name="A" unicode="A" horiz-adv-x="1595" 
d="M0 0l526 1331h543l526 -1331h-452l-66 186h-559l-65 -186h-453zM629 494h338l-168 473z" />
    <glyph glyph-name="B" unicode="B" horiz-adv-x="1509" 
d="M92 0v1331h901q214 0 328.5 -97t114.5 -278q0 -230 -205 -303q231 -64 231 -299q0 -170 -117 -262t-335 -92h-918zM522 788h318q155 0 155 101q0 115 -155 115h-318v-216zM522 328h318q97 0 139.5 27.5t42.5 90.5q0 61 -43.5 89t-138.5 28h-318v-235z" />
    <glyph glyph-name="C" unicode="C" horiz-adv-x="1585" 
d="M47 668q0 325 202 504.5t568 179.5q324 0 509 -144.5t208 -412.5h-434q-50 190 -289 190q-158 0 -241 -80.5t-83 -236.5q0 -322 332 -322q133 0 203.5 56.5t85.5 172.5h430q-11 -289 -196 -442t-525 -153q-370 0 -570 179t-200 509z" />
    <glyph glyph-name="D" unicode="D" horiz-adv-x="1591" 
d="M836 1331q341 0 524.5 -169.5t183.5 -493.5q0 -329 -182.5 -498.5t-525.5 -169.5h-744v1331h744zM522 346h312q133 0 201.5 81t68.5 241q0 155 -69.5 236t-200.5 81h-312v-639z" />
    <glyph glyph-name="E" unicode="E" horiz-adv-x="1333" 
d="M92 0v1331h1180v-348h-750v-154h688v-307h-688v-174h750v-348h-1180z" />
    <glyph glyph-name="F" unicode="F" horiz-adv-x="1296" 
d="M92 0v1331h1153v-348h-723v-156h682v-307h-682v-520h-430z" />
    <glyph glyph-name="G" unicode="G" horiz-adv-x="1589" 
d="M1225 0l-58 104q-148 -124 -411 -124q-331 0 -520 183t-189 505q0 325 201 504.5t565 179.5q300 0 487 -126t213 -356h-448q-57 115 -254 115q-158 0 -241 -80.5t-83 -236.5q0 -322 310 -322q169 0 290 39v117h-268v246h699v-748h-293z" />
    <glyph glyph-name="H" unicode="H" horiz-adv-x="1613" 
d="M92 0v1331h430v-493h570v493h430v-1331h-430v469h-570v-469h-430z" />
    <glyph glyph-name="I" unicode="I" horiz-adv-x="614" 
d="M92 0v1331h430v-1331h-430z" />
    <glyph glyph-name="J" unicode="J" horiz-adv-x="976" 
d="M465 555v776h430v-930q0 -405 -508 -405q-276 0 -346 4v348q78 -4 235 -4q101 0 145 48.5t44 162.5z" />
    <glyph glyph-name="K" unicode="K" horiz-adv-x="1523" 
d="M92 0v1331h430v-489h158l334 489h497l-462 -626l516 -705h-523l-364 514h-156v-514h-430z" />
    <glyph glyph-name="L" unicode="L" horiz-adv-x="1226" 
d="M92 0v1331h430v-983h664v-348h-1094z" />
    <glyph glyph-name="M" unicode="M" horiz-adv-x="1861" 
d="M803 285l-281 499v-784h-430v1331h514l326 -579l323 579h514v-1331h-430v784l-280 -499h-256z" />
    <glyph glyph-name="N" unicode="N" horiz-adv-x="1574" 
d="M1026 0l-504 737v-737h-430v1331h453l508 -737v737h430v-1331h-457z" />
    <glyph glyph-name="O" unicode="O" horiz-adv-x="1662" 
d="M47 668q0 325 207.5 504.5t581.5 179.5q373 0 576.5 -178.5t203.5 -505.5q0 -331 -202.5 -509.5t-577.5 -178.5q-379 0 -584 179t-205 509zM487 668q0 -160 88 -241t259 -81q168 0 255 81t87 241q0 155 -88 236t-254 81q-169 0 -258 -80.5t-89 -236.5z" />
    <glyph glyph-name="P" unicode="P" horiz-adv-x="1525" 
d="M866 1331q300 0 456.5 -128t156.5 -374q0 -483 -613 -483h-344v-346h-430v1331h774zM522 672h301q114 0 164.5 37t50.5 120q0 82 -51 119t-164 37h-301v-313z" />
    <glyph glyph-name="Q" unicode="Q" horiz-adv-x="1662" 
d="M1266 -201h-336l-49 181h-45q-379 0 -584 179t-205 509q0 325 207.5 504.5t581.5 179.5q373 0 576.5 -178.5t203.5 -505.5q0 -238 -107 -399.5t-309 -233.5zM487 668q0 -293 287 -320h4l-49 182h336l27 -100q84 81 84 238q0 155 -88 236t-254 81q-169 0 -258 -80.5
t-89 -236.5z" />
    <glyph glyph-name="R" unicode="R" horiz-adv-x="1529" 
d="M866 1331q299 0 456 -120.5t157 -350.5q0 -292 -265 -385l256 -475h-436l-215 428h-297v-428h-430v1331h774zM522 733h301q114 0 164.5 30t50.5 97q0 66 -51 95.5t-164 29.5h-301v-252z" />
    <glyph glyph-name="S" unicode="S" horiz-adv-x="1421" 
d="M1374 412q0 -222 -162 -327t-483 -105q-352 0 -521.5 120.5t-158.5 348.5h408q6 -77 70.5 -110t217.5 -32q116 2 163.5 23t47.5 73q0 19 -8.5 33t-28.5 24.5t-40 17.5t-56 12.5t-62.5 8.5t-72.5 7q-212 18 -302 40q-246 58 -308 228q-23 63 -23 141q0 215 163 326
t480 111q320 0 484.5 -110.5t177.5 -334.5h-410q-12 117 -239 117q-217 0 -217 -98q0 -18 8.5 -32t28.5 -24t40 -17t56 -12.5t62.5 -8.5t72.5 -7q213 -21 310 -48q243 -69 290 -259q12 -49 12 -106z" />
    <glyph glyph-name="T" unicode="T" horiz-adv-x="1452" 
d="M512 0v983h-492v348h1412v-348h-490v-983h-430z" />
    <glyph glyph-name="U" unicode="U" horiz-adv-x="1562" 
d="M782 307q149 0 209 68.5t60 224.5v731h430v-786q0 -271 -177.5 -418t-521.5 -147t-522 146t-178 419v786h430v-731q0 -156 60 -224.5t210 -68.5z" />
    <glyph glyph-name="V" unicode="V" horiz-adv-x="1595" 
d="M0 1331h453l346 -987l344 987h452l-526 -1331h-543z" />
    <glyph glyph-name="W" unicode="W" horiz-adv-x="2234" 
d="M0 1331h453l233 -837l242 837h379l241 -837l234 837h452l-413 -1331h-484l-221 768l-221 -768h-481z" />
    <glyph glyph-name="X" unicode="X" horiz-adv-x="1595" 
d="M1090 0l-293 358l-295 -358h-496l543 662l-549 669h504l297 -362l297 362h493l-542 -663l546 -668h-505z" />
    <glyph glyph-name="Y" unicode="Y" horiz-adv-x="1595" 
d="M0 1331h483l316 -510l313 510h483l-581 -872v-459h-430v457z" />
    <glyph glyph-name="Z" unicode="Z" horiz-adv-x="1290" 
d="M41 348l647 635h-647v348h1208v-348l-645 -635h645v-348h-1208v348z" />
    <glyph glyph-name="bracketleft" unicode="[" horiz-adv-x="706" 
d="M82 -229v1642h584v-307h-215v-1028h215v-307h-584z" />
    <glyph glyph-name="backslash" unicode="\" horiz-adv-x="899" 
d="M508 -41l-508 1413h391l508 -1413h-391z" />
    <glyph glyph-name="bracketright" unicode="]" horiz-adv-x="706" 
d="M625 -229h-584v307h215v1028h-215v307h584v-1642z" />
    <glyph glyph-name="asciicircum" unicode="^" horiz-adv-x="1146" 
d="M418 1331h311l356 -747h-297l-215 479l-215 -479h-297z" />
    <glyph glyph-name="underscore" unicode="_" horiz-adv-x="911" 
d="M61 -305v266h789v-266h-789z" />
    <glyph glyph-name="grave" unicode="`" horiz-adv-x="741" 
d="M373 1210l-353 381h379l322 -381h-348z" />
    <glyph glyph-name="a" unicode="a" horiz-adv-x="1380" 
d="M41 319q0 161 99.5 243.5t293.5 82.5h465v64q0 74 -53 107.5t-168 33.5q-119 0 -172.5 -21.5t-56.5 -70.5h-377q0 201 157 305t459 104q282 0 451.5 -97.5t169.5 -260.5v-809h-336l-58 143q-74 -79 -189.5 -121t-250.5 -42q-214 0 -324 90t-110 249zM899 416v26h-317
q-66 0 -96.5 -21t-30.5 -65q0 -49 34 -70.5t111 -21.5q103 0 189 42.5t110 109.5z" />
    <glyph glyph-name="b" unicode="b" horiz-adv-x="1533" 
d="M82 0v1475h410v-424q162 116 370 116q317 0 474 -147t157 -445q0 -299 -156.5 -447t-472.5 -148q-240 0 -407 153l-47 -133h-328zM492 688v-227q125 -125 317 -125q138 0 203 58.5t65 180.5q0 123 -68 180.5t-214 57.5q-87 0 -158.5 -28.5t-144.5 -96.5z" />
    <glyph glyph-name="c" unicode="c" horiz-adv-x="1433" 
d="M735 813q-144 0 -212 -58.5t-68 -179.5q0 -122 67 -180.5t211 -58.5q122 0 183.5 35.5t78.5 117.5h398q-35 -509 -666 -509q-333 0 -509.5 153.5t-176.5 441.5q0 286 178 439t508 153q640 0 664 -530h-398q-20 92 -82 134t-176 42z" />
    <glyph glyph-name="d" unicode="d" horiz-adv-x="1533" 
d="M1452 0h-328l-47 133q-167 -153 -407 -153q-316 0 -472.5 148t-156.5 447q0 298 157 445t474 147q208 0 370 -116v424h410v-1475zM1042 461v227q-73 68 -144.5 96.5t-158.5 28.5q-146 0 -214 -57.5t-68 -180.5q0 -122 65 -180.5t203 -58.5q192 0 317 125z" />
    <glyph glyph-name="e" unicode="e" horiz-adv-x="1421" 
d="M733 -20q-334 0 -513 154t-179 441q0 285 179 438.5t511 153.5q297 0 461 -123t184 -360q9 -94 -4 -211h-905q47 -176 281 -176q176 0 231 102h393q-40 -207 -202 -313t-437 -106zM471 690h524q-10 76 -77.5 118t-180.5 42q-212 0 -266 -160z" />
    <glyph glyph-name="f" unicode="f" horiz-adv-x="1081" 
d="M625 0h-410v860h-215v287h215v67q0 171 110 277t328 106q351 0 428 -6v-334q-89 7 -329 7q-64 0 -95.5 -27t-31.5 -90h454v-287h-454v-860z" />
    <glyph glyph-name="g" unicode="g" horiz-adv-x="1513" 
d="M1022 123v104q-160 -118 -365 -118q-310 0 -463 132t-153 398q0 265 153.5 396.5t464.5 131.5q106 0 212.5 -35t191.5 -100l41 115h328v-1024q0 -258 -175 -398.5t-499 -140.5q-293 0 -459.5 112.5t-183.5 323.5h422q2 -55 55.5 -87.5t165.5 -32.5q139 0 201.5 53
t62.5 170zM1022 569v119q-72 66 -141.5 95.5t-153.5 29.5q-270 0 -270 -186q0 -183 258 -183q179 0 307 125z" />
    <glyph glyph-name="h" unicode="h" 
d="M82 0v1495h410v-483q87 77 191 116t245 39q212 0 349.5 -125t137.5 -317v-725h-409v621q0 104 -53 150t-173 46q-82 0 -158 -39t-130 -108v-670h-410z" />
    <glyph glyph-name="i" unicode="i" horiz-adv-x="600" 
d="M66 1421q0 90 62 142.5t165 52.5q110 0 176 -53t66 -142t-65.5 -141.5t-176.5 -52.5q-104 0 -165.5 52t-61.5 142zM96 0v1147h410v-1147h-410z" />
    <glyph glyph-name="j" unicode="j" horiz-adv-x="827" 
d="M297 1421q0 90 62 142.5t165 52.5q110 0 176 -53t66 -142t-65.5 -141.5t-176.5 -52.5q-104 0 -165.5 52t-61.5 142zM324 180v967h409v-1143q0 -152 -126.5 -251t-321.5 -99q-197 0 -267 4v334q40 -4 91 -4q116 0 165.5 44t49.5 148z" />
    <glyph glyph-name="k" unicode="k" horiz-adv-x="1476" 
d="M82 0v1495h410v-735h176l303 387h485l-450 -555l501 -592h-512l-342 412h-161v-412h-410z" />
    <glyph glyph-name="l" unicode="l" horiz-adv-x="573" 
d="M82 0v1495h410v-1495h-410z" />
    <glyph glyph-name="m" unicode="m" horiz-adv-x="2246" 
d="M82 0v1147h336l51 -150q82 84 181.5 127t234.5 43q128 0 229.5 -56t159.5 -155q90 106 195.5 158.5t256.5 52.5q197 0 323 -126t126 -316v-725h-410v621q0 104 -44.5 150t-143.5 46q-69 0 -134.5 -39t-109.5 -106v-672h-409v621q0 104 -45 150t-144 46q-69 0 -134 -38.5
t-109 -106.5v-672h-410z" />
    <glyph glyph-name="n" unicode="n" 
d="M82 0v1147h336l53 -154q90 87 198 130.5t259 43.5q214 0 350.5 -125.5t136.5 -316.5v-725h-409v621q0 104 -53 150t-173 46q-82 0 -158 -39t-130 -108v-670h-410z" />
    <glyph glyph-name="o" unicode="o" horiz-adv-x="1499" 
d="M41 575q0 286 183.5 439t527.5 153q341 0 523.5 -153t182.5 -439q0 -288 -182 -441.5t-524 -153.5q-344 0 -527.5 153t-183.5 442zM455 575q0 -122 72 -180.5t223 -58.5q148 0 220 59t72 180q0 238 -292 238q-295 0 -295 -238z" />
    <glyph glyph-name="p" unicode="p" horiz-adv-x="1533" 
d="M82 1147h328l47 -133q167 153 407 153q316 0 472.5 -148.5t156.5 -447.5q0 -297 -157 -444t-474 -147q-208 0 -370 116v-465h-410v1516zM492 686v-227q73 -68 144.5 -96.5t158.5 -28.5q146 0 214 57t68 180q0 122 -65.5 181t-202.5 59q-192 0 -317 -125z" />
    <glyph glyph-name="q" unicode="q" horiz-adv-x="1533" 
d="M1452 1147v-1516h-410v465q-162 -116 -370 -116q-317 0 -474 147t-157 444q0 299 156.5 447.5t472.5 148.5q240 0 407 -153l47 133h328zM1042 459v227q-125 125 -317 125q-137 0 -202.5 -59t-65.5 -181q0 -123 68 -180t214 -57q87 0 158.5 28.5t144.5 96.5z" />
    <glyph glyph-name="r" unicode="r" horiz-adv-x="993" 
d="M82 0v1147h338l69 -172q74 93 175 142.5t219 49.5q66 0 90 -6v-387q-46 8 -129 8q-169 0 -260.5 -80t-91.5 -229v-473h-410z" />
    <glyph glyph-name="s" unicode="s" horiz-adv-x="1320" 
d="M1280 365q0 -189 -158.5 -287t-455.5 -98q-314 0 -473 106t-150 301h360q0 -113 277 -113q197 0 197 62q0 12 -4.5 22t-15.5 18t-21.5 14t-31 10.5t-35.5 7.5t-43 6.5t-46 5t-51 4.5q-205 17 -295 40q-233 60 -275 238q-10 42 -10 91q0 182 158.5 278t460.5 96
q293 0 439.5 -96t158.5 -299h-359q-12 52 -66.5 76t-158.5 24q-106 0 -164.5 -22t-58.5 -59q0 -42 56.5 -60t168.5 -29q14 -1 43 -4q71 -6 108.5 -10t105 -15.5t106.5 -25t89.5 -39t77.5 -57.5t46.5 -79.5t19.5 -106.5z" />
    <glyph glyph-name="t" unicode="t" horiz-adv-x="1036" 
d="M639 483q0 -73 29.5 -105t91.5 -32q182 0 256 8v-360q-23 -4 -156 -9t-190 -5q-441 0 -441 391v489h-229v287h229v225l410 82v-307h369v-287h-369v-377z" />
    <glyph glyph-name="u" unicode="u" 
d="M1405 1147v-1147h-336l-53 154q-90 -87 -198 -130.5t-259 -43.5q-214 0 -350.5 125.5t-136.5 316.5v725h409v-621q0 -104 53 -150t173 -46q82 0 158 39t130 108v670h410z" />
    <glyph glyph-name="v" unicode="v" horiz-adv-x="1458" 
d="M510 0l-510 1147h455l274 -711l275 711h454l-510 -1147h-438z" />
    <glyph glyph-name="w" unicode="w" horiz-adv-x="2115" 
d="M438 0l-438 1147h449l204 -672l224 672h362l223 -672l205 672h449l-439 -1147h-407l-211 631l-213 -631h-408z" />
    <glyph glyph-name="x" unicode="x" horiz-adv-x="1533" 
d="M1008 0l-244 276l-244 -276h-514l502 569l-508 578h524l246 -279l246 279h512l-502 -572l508 -575h-526z" />
    <glyph glyph-name="y" unicode="y" horiz-adv-x="1447" 
d="M115 -367v328h350q43 0 67 16l-532 1170h449l272 -739l289 739h438l-547 -1253q-59 -135 -138.5 -198t-203.5 -63h-444z" />
    <glyph glyph-name="z" unicode="z" horiz-adv-x="1234" 
d="M41 860v287h1153v-287l-643 -573h643v-287h-1153v287l645 573h-645z" />
    <glyph glyph-name="braceleft" unicode="{" horiz-adv-x="837" 
d="M41 442v299h96q42 0 59 15.5t17 54.5v416q0 85 47 135.5t125 50.5h412v-307h-140q-43 0 -59 -21.5t-16 -74.5v-211q0 -63 -33 -118.5t-88 -88.5q55 -33 88 -88.5t33 -118.5v-211q0 -53 16 -74.5t59 -21.5h140v-307h-412q-78 0 -125 50.5t-47 135.5v416q0 38 -16.5 53.5
t-59.5 15.5h-96z" />
    <glyph glyph-name="bar" unicode="|" horiz-adv-x="696" 
d="M164 -332v1745h368v-1745h-368z" />
    <glyph glyph-name="braceright" unicode="}" horiz-adv-x="837" 
d="M41 -229v307h139q43 0 59.5 22t16.5 74v211q0 63 33 118.5t88 88.5q-55 33 -88 88.5t-33 118.5v211q0 52 -16.5 74t-59.5 22h-139v307h412q78 0 125 -50.5t47 -135.5v-416q0 -39 16.5 -54.5t58.5 -15.5h97v-299h-97q-42 0 -58.5 -15t-16.5 -54v-416q0 -85 -47 -135.5
t-125 -50.5h-412z" />
    <glyph glyph-name="asciitilde" unicode="~" horiz-adv-x="1339" 
d="M690 752q84 -43 170 -43q53 0 85 22.5t32 67.5h280q0 -186 -104 -292t-264 -106q-114 0 -240 60q-84 43 -170 43q-53 0 -85 -22.5t-32 -67.5h-280q0 186 104.5 291.5t264.5 105.5q115 0 239 -59z" />
    <glyph glyph-name="exclamdown" unicode="&#xa1;" horiz-adv-x="634" 
d="M121 1171q0 78 53.5 129.5t136.5 51.5q90 0 145.5 -51t55.5 -130q0 -80 -55.5 -131t-145.5 -51q-83 0 -136.5 51t-53.5 131zM154 905h327l51 -925h-430z" />
    <glyph glyph-name="cent" unicode="&#xa2;" horiz-adv-x="1515" 
d="M776 813q-144 0 -212 -58.5t-68 -179.5q0 -122 67 -180.5t211 -58.5q122 0 183.5 35.5t78.5 117.5h398q-13 -211 -132 -335.5t-339 -159.5v-342h-369v340q-251 38 -381.5 187t-130.5 396q0 245 132 393.5t380 186.5v258h369v-260q448 -73 469 -516h-398q-20 92 -82 134
t-176 42z" />
    <glyph glyph-name="sterling" unicode="&#xa3;" horiz-adv-x="1460" 
d="M1360 348v-348h-1278v348q132 0 177 12q79 22 79 93q0 15 -4 47h-252v245h180q-35 119 -35 209q0 182 162.5 290t435.5 108q261 0 400.5 -113.5t152.5 -337.5h-399q0 59 -38 92t-105 33q-72 0 -118 -36.5t-46 -104.5q0 -53 26 -140h578v-245h-506q4 -32 4 -47
q0 -60 -39 -105h625z" />
    <glyph glyph-name="currency" unicode="&#xa4;" horiz-adv-x="1429" 
d="M223 649q0 111 33 193l-170 170l262 262l172 -172q85 33 199 33q102 0 190 -31l172 174l260 -262l-165 -166q36 -85 36 -201q0 -118 -36 -203l172 -172l-263 -262l-180 181q-89 -29 -186 -29q-100 0 -197 33l-178 -179l-262 261l176 176q-35 87 -35 194zM557 649
q0 -71 44.5 -114t117.5 -43q72 0 116 43t44 114t-44 114.5t-116 43.5q-73 0 -117.5 -43.5t-44.5 -114.5z" />
    <glyph glyph-name="yen" unicode="&#xa5;" horiz-adv-x="1759" 
d="M82 1331h483l316 -510l313 510h483l-436 -655h277v-195h-1274v195h276zM666 0v164h-422v194h1274v-194h-422v-164h-430z" />
    <glyph glyph-name="brokenbar" unicode="&#xa6;" horiz-adv-x="696" 
d="M164 795v618h368v-618h-368zM164 -332v619h368v-619h-368z" />
    <glyph glyph-name="section" unicode="&#xa7;" horiz-adv-x="1267" 
d="M1186 557q0 -101 -66 -170q66 -69 66 -194q0 -180 -141 -271.5t-416 -91.5q-283 0 -418.5 97.5t-126.5 295.5h344q6 -63 58.5 -90.5t175.5 -26.5q96 0 134 18.5t38 63.5q0 38 -48 56t-143 26q-15 1 -47 4q-49 4 -74.5 6.5t-74.5 9.5t-78 14.5t-71.5 21.5t-68 30.5t-55 42
t-46 56.5t-27.5 72.5t-11 90.5q0 104 66 173q-66 69 -66 192q0 183 140 276t417 93q263 0 390 -89t137 -286h-347q-9 98 -190 98q-178 0 -178 -84q0 -38 47 -56t141 -26q177 -16 237 -29q221 -46 279 -192q23 -57 23 -131zM496 684q-37 -30 -37 -78q0 -28 13 -46.5
t40.5 -29.5t57.5 -16.5t77 -9.5q24 -2 74.5 -5t73.5 -5q39 24 39 75q0 29 -13 49t-41 31t-58.5 17t-78.5 10q-23 2 -72.5 4t-74.5 4z" />
    <glyph glyph-name="dieresis" unicode="&#xa8;" horiz-adv-x="749" 
d="M20 1423q0 66 43.5 109t110.5 43q69 0 112.5 -43t43.5 -109t-43.5 -108.5t-112.5 -42.5q-67 0 -110.5 42.5t-43.5 108.5zM420 1423q0 66 43 109t110 43q69 0 112.5 -43t43.5 -109t-43.5 -108.5t-112.5 -42.5q-67 0 -110 42.5t-43 108.5z" />
    <glyph glyph-name="copyright" unicode="&#xa9;" horiz-adv-x="1984" 
d="M82 627q0 183 66 337t184 262t288 168t373 60q202 0 371.5 -60t288 -168t184.5 -262t66 -337t-66 -337.5t-184.5 -262.5t-288 -168t-371.5 -60q-270 0 -477.5 103.5t-320.5 291.5t-113 433zM297 627q0 -275 191.5 -444t504.5 -169q312 0 503.5 169t191.5 444
t-191.5 443.5t-503.5 168.5q-313 0 -504.5 -168.5t-191.5 -443.5zM1001 797q-108 0 -159 -43t-51 -131q0 -90 50 -133.5t156 -43.5q91 0 138.5 27t60.5 88h338q-14 -207 -150.5 -312.5t-392.5 -105.5q-268 0 -410.5 124.5t-142.5 355.5q0 229 144 352t411 123
q521 0 539 -436h-338q-17 70 -63.5 102.5t-129.5 32.5z" />
    <glyph glyph-name="guillemotleft" unicode="&#xab;" horiz-adv-x="1372" 
d="M82 641l342 328h334l-385 -408l385 -405h-334l-342 327v158zM614 641l342 328h334l-385 -408l385 -405h-334l-342 327v158z" />
    <glyph glyph-name="logicalnot" unicode="&#xac;" horiz-adv-x="1146" 
d="M82 516v266h942v-585h-266v319h-676z" />
    <glyph glyph-name="registered" unicode="&#xae;" horiz-adv-x="1984" 
d="M82 627q0 183 66 337t184 262t288 168t373 60q202 0 371.5 -60t288 -168t184.5 -262t66 -337t-66 -337.5t-184.5 -262.5t-288 -168t-371.5 -60q-270 0 -477.5 103.5t-320.5 291.5t-113 433zM297 627q0 -275 191.5 -444t504.5 -169q312 0 503.5 169t191.5 444
t-191.5 443.5t-503.5 168.5q-313 0 -504.5 -168.5t-191.5 -443.5zM1042 1055q196 0 298 -78t102 -227q0 -181 -162 -244l156 -297h-293l-129 264h-174v-264h-291v846h493zM840 678h174q70 0 100.5 16.5t30.5 55.5q0 38 -31 54.5t-100 16.5h-174v-143z" />
    <glyph glyph-name="macron" unicode="&#xaf;" horiz-adv-x="675" 
d="M20 1290v266h635v-266h-635z" />
    <glyph glyph-name="degree" unicode="&#xb0;" horiz-adv-x="976" 
d="M61 989q0 179 117 288t311 109q193 0 309.5 -109t116.5 -288t-116.5 -288t-309.5 -109q-194 0 -311 109t-117 288zM322 989q0 -60 46 -97.5t121 -37.5q74 0 120 37.5t46 97.5t-46 97.5t-120 37.5q-75 0 -121 -37.5t-46 -97.5z" />
    <glyph glyph-name="plusminus" unicode="&#xb1;" horiz-adv-x="1075" 
d="M82 594v266h321v252h267v-252h323v-266h-323v-250h-267v250h-321zM82 0v266h911v-266h-911z" />
    <glyph glyph-name="twosuperior" unicode="&#xb2;" horiz-adv-x="972" 
d="M20 399v273q0 29 8 55.5t19.5 47t34 40t40 33t50.5 28t52.5 22.5t59 20t57 16.5t59 15t53.5 13.5q40 11 62.5 17.5t47 16.5t35 21t10.5 24q0 50 -121 50q-123 -3 -135 -68h-321q22 322 487 322q223 0 328.5 -77t105.5 -237q0 -60 -25 -108t-70.5 -80.5t-94.5 -53.5
t-113 -38q-59 -17 -141 -32t-121 -25t-39 -23h598v-273h-926z" />
    <glyph glyph-name="threesuperior" unicode="&#xb3;" horiz-adv-x="1024" 
d="M977 1065q0 -128 -146 -195q173 -55 173 -204q0 -137 -125.5 -209t-364.5 -72q-235 0 -360 81.5t-134 242.5h322q6 -68 174 -68q65 0 104 15.5t39 41.5q0 32 -18.5 47.5t-69.5 22t-159 6.5h-168v182h159q125 0 177.5 16t52.5 56q0 28 -37 45.5t-92 16.5q-142 0 -148 -66
h-321q9 164 125 243t352 79q225 0 345 -73t120 -208z" />
    <glyph glyph-name="acute" unicode="&#xb4;" horiz-adv-x="741" 
d="M369 1210h-349l322 381h379z" />
    <glyph glyph-name="paragraph" unicode="&#xb6;" horiz-adv-x="1579" 
d="M623 -387v764q-220 0 -360 133t-140 342q0 211 140 345t360 134h327v-1718h-327zM1087 -387v1718h328v-1718h-328z" />
    <glyph glyph-name="periodcentered" unicode="&#xb7;" horiz-adv-x="532" 
d="M82 666q0 79 51 130.5t129 51.5q84 0 136.5 -51t52.5 -131q0 -79 -52.5 -130t-136.5 -51q-78 0 -129 51.5t-51 129.5z" />
    <glyph glyph-name="cedilla" unicode="&#xb8;" horiz-adv-x="534" 
d="M221 -98q0 61 -57 112h266q37 -35 60.5 -95t23.5 -118q0 -148 -134 -223t-360 -55v256q97 -9 149 22.5t52 100.5z" />
    <glyph glyph-name="onesuperior" unicode="&#xb9;" horiz-adv-x="688" 
d="M246 399v660h-226v272h566v-932h-340z" />
    <glyph glyph-name="guillemotright" unicode="&#xbb;" horiz-adv-x="1372" 
d="M1290 641v-158l-342 -327h-334l385 407l-385 406h334zM758 641v-158l-342 -327h-334l385 407l-385 406h334z" />
    <glyph glyph-name="onequarter" unicode="&#xbc;" horiz-adv-x="2209" 
d="M922 -41h-392l508 1413h392zM246 399v660h-226v272h566v-932h-340zM1706 0v152h-516v272l516 508h342v-508h141v-272h-141v-152h-342zM1532 424h174v147z" />
    <glyph glyph-name="onehalf" unicode="&#xbd;" horiz-adv-x="2220" 
d="M922 -41h-392l508 1413h392zM246 399v660h-226v272h566v-932h-340zM1268 0v272q0 29 8 55.5t19.5 47t34 40t39.5 33t50.5 28t52.5 22.5t58.5 20t57 16.5t59 15t53.5 13.5q79 21 117 38t38 42q0 49 -120 49q-125 -3 -136 -67h-321q22 321 487 321q224 0 329.5 -76.5
t105.5 -236.5q0 -60 -25 -108t-71 -80.5t-95 -54t-113 -38.5q-59 -17 -141 -32t-121 -25t-39 -23h598v-272h-925z" />
    <glyph glyph-name="threequarters" unicode="&#xbe;" horiz-adv-x="2547" 
d="M1767 1372l-507 -1413h-392l508 1413h391zM977 1065q0 -128 -146 -195q173 -55 173 -204q0 -137 -125.5 -209t-364.5 -72q-235 0 -360 81.5t-134 242.5h322q6 -68 174 -68q65 0 104 15.5t39 41.5q0 32 -18.5 47.5t-69.5 22t-159 6.5h-168v182h159q125 0 177.5 16t52.5 56
q0 28 -37 45.5t-92 16.5q-142 0 -148 -66h-321q9 164 125 243t352 79q225 0 345 -73t120 -208zM2386 0h-342v152h-516v272l516 508h342v-508h141v-272h-141v-152zM2044 571l-174 -147h174v147z" />
    <glyph glyph-name="questiondown" unicode="&#xbf;" horiz-adv-x="1447" 
d="M924 1182q0 -75 -54 -123.5t-137 -48.5q-90 0 -145.5 48t-55.5 124q0 74 55.5 122t145.5 48q83 0 137 -48t54 -122zM555 928h401q26 -64 21 -115.5t-30.5 -86.5t-67 -65t-89 -51t-96 -44t-87 -44t-63 -51t-24.5 -65q0 -48 51 -73.5t150 -25.5q220 0 235 117h410
q-15 -225 -168 -334.5t-491 -109.5q-304 0 -464.5 99.5t-160.5 285.5q0 79 30 143.5t77 105.5t102.5 74.5t108.5 59t93.5 50.5t58.5 57.5t3 72.5z" />
    <glyph glyph-name="Agrave" unicode="&#xc0;" horiz-adv-x="1595" 
d="M801 1395l-352 381h378l322 -381h-348zM0 0l526 1331h543l526 -1331h-452l-66 186h-559l-65 -186h-453zM629 494h338l-168 473z" />
    <glyph glyph-name="Aacute" unicode="&#xc1;" horiz-adv-x="1595" 
d="M797 1395h-348l321 381h379zM0 0l526 1331h543l526 -1331h-452l-66 186h-559l-65 -186h-453zM629 494h338l-168 473z" />
    <glyph glyph-name="Acircumflex" unicode="&#xc2;" horiz-adv-x="1595" 
d="M633 1374h-314l347 369h266l346 -369h-313l-166 178zM0 0l526 1331h543l526 -1331h-452l-66 186h-559l-65 -186h-453zM629 494h338l-168 473z" />
    <glyph glyph-name="Atilde" unicode="&#xc3;" horiz-adv-x="1595" 
d="M807 1704q72 -35 127 -35q61 0 61 49h215q0 -132 -74.5 -207t-187.5 -75q-83 0 -160 39q-69 34 -126 34q-62 0 -62 -49h-215q0 132 74.5 207.5t187.5 75.5q83 0 160 -39zM0 0l526 1331h543l526 -1331h-452l-66 186h-559l-65 -186h-453zM629 494h338l-168 473z" />
    <glyph glyph-name="Adieresis" unicode="&#xc4;" horiz-adv-x="1595" 
d="M444 1608q0 66 43.5 108.5t110.5 42.5q69 0 112.5 -42.5t43.5 -108.5t-43.5 -109t-112.5 -43q-67 0 -110.5 43t-43.5 109zM844 1608q0 66 43 108.5t110 42.5q69 0 112.5 -42.5t43.5 -108.5t-43.5 -109t-112.5 -43q-67 0 -110 43t-43 109zM0 0l526 1331h543l526 -1331
h-452l-66 186h-559l-65 -186h-453zM629 494h338l-168 473z" />
    <glyph glyph-name="Aring" unicode="&#xc5;" horiz-adv-x="1595" 
d="M477 1647q0 125 90.5 201.5t231.5 76.5q140 0 230.5 -77t90.5 -201q0 -123 -91 -201t-230 -78q-140 0 -231 77.5t-91 201.5zM684 1647q0 -38 31.5 -61t83.5 -23t83 23t31 61t-31 61t-83 23t-83.5 -23t-31.5 -61zM0 0l526 1331h543l526 -1331h-452l-66 186h-559l-65 -186
h-453zM629 494h338l-168 473z" />
    <glyph glyph-name="AE" unicode="&#xc6;" horiz-adv-x="2230" 
d="M0 0l913 1331h1256v-348h-647v-154h585v-307h-585v-174h647v-348h-1077v186h-492l-121 -186h-479zM799 494h293v452z" />
    <glyph glyph-name="Ccedilla" unicode="&#xc7;" horiz-adv-x="1585" 
d="M47 668q0 325 202 504.5t568 179.5q324 0 509 -144.5t208 -412.5h-434q-50 190 -289 190q-158 0 -241 -80.5t-83 -236.5q0 -322 332 -322q133 0 203.5 56.5t85.5 172.5h430q-9 -252 -152 -401.5t-407 -183.5q61 -81 61 -189q0 -148 -133.5 -223t-359.5 -55v256
q97 -9 149 22.5t52 100.5q0 38 -29 82q-324 23 -498 200t-174 484z" />
    <glyph glyph-name="Egrave" unicode="&#xc8;" horiz-adv-x="1333" 
d="M670 1395l-353 381h379l322 -381h-348zM92 0v1331h1180v-348h-750v-154h688v-307h-688v-174h750v-348h-1180z" />
    <glyph glyph-name="Eacute" unicode="&#xc9;" horiz-adv-x="1333" 
d="M666 1395h-349l322 381h379zM92 0v1331h1180v-348h-750v-154h688v-307h-688v-174h750v-348h-1180z" />
    <glyph glyph-name="Ecircumflex" unicode="&#xca;" horiz-adv-x="1333" 
d="M502 1374h-314l347 369h266l346 -369h-313l-166 178zM92 0v1331h1180v-348h-750v-154h688v-307h-688v-174h750v-348h-1180z" />
    <glyph glyph-name="Edieresis" unicode="&#xcb;" horiz-adv-x="1333" 
d="M313 1608q0 66 43.5 108.5t110.5 42.5q69 0 112.5 -42.5t43.5 -108.5t-43.5 -109t-112.5 -43q-67 0 -110.5 43t-43.5 109zM713 1608q0 66 43 108.5t110 42.5q69 0 112.5 -42.5t43.5 -108.5t-43.5 -109t-112.5 -43q-67 0 -110 43t-43 109zM92 0v1331h1180v-348h-750v-154
h688v-307h-688v-174h750v-348h-1180z" />
    <glyph glyph-name="Igrave" unicode="&#xcc;" horiz-adv-x="614" 
d="M309 1395l-352 381h379l321 -381h-348zM92 0v1331h430v-1331h-430z" />
    <glyph glyph-name="Iacute" unicode="&#xcd;" horiz-adv-x="614" 
d="M305 1395h-348l322 381h378zM92 0v1331h430v-1331h-430z" />
    <glyph glyph-name="Icircumflex" unicode="&#xce;" horiz-adv-x="614" 
d="M141 1374h-313l346 369h266l346 -369h-313l-166 178zM92 0v1331h430v-1331h-430z" />
    <glyph glyph-name="Idieresis" unicode="&#xcf;" horiz-adv-x="614" 
d="M-47 1608q0 66 43 108.5t110 42.5q69 0 112.5 -42.5t43.5 -108.5t-43.5 -109t-112.5 -43q-67 0 -110 43t-43 109zM352 1608q0 66 43.5 108.5t110.5 42.5q69 0 112.5 -42.5t43.5 -108.5t-43.5 -109t-112.5 -43q-67 0 -110.5 43t-43.5 109zM92 0v1331h430v-1331h-430z" />
    <glyph glyph-name="Eth" unicode="&#xd0;" horiz-adv-x="1611" 
d="M856 1331q341 0 525 -169.5t184 -493.5q0 -329 -183 -498.5t-526 -169.5h-743v547h-103v266h103v518h743zM543 346h311q133 0 201.5 81t68.5 241q0 155 -69.5 236t-200.5 81h-311v-172h284v-266h-284v-201z" />
    <glyph glyph-name="Ntilde" unicode="&#xd1;" horiz-adv-x="1574" 
d="M797 1704q72 -35 127 -35q61 0 61 49h215q0 -132 -74.5 -207t-187.5 -75q-83 0 -160 39q-69 34 -127 34q-61 0 -61 -49h-215q0 132 74.5 207.5t187.5 75.5q83 0 160 -39zM1026 0l-504 737v-737h-430v1331h453l508 -737v737h430v-1331h-457z" />
    <glyph glyph-name="Ograve" unicode="&#xd2;" horiz-adv-x="1662" 
d="M834 1395l-353 381h379l322 -381h-348zM47 668q0 325 207.5 504.5t581.5 179.5q373 0 576.5 -178.5t203.5 -505.5q0 -331 -202.5 -509.5t-577.5 -178.5q-379 0 -584 179t-205 509zM487 668q0 -160 88 -241t259 -81q168 0 255 81t87 241q0 155 -88 236t-254 81
q-169 0 -258 -80.5t-89 -236.5z" />
    <glyph glyph-name="Oacute" unicode="&#xd3;" horiz-adv-x="1662" 
d="M829 1395h-348l322 381h379zM47 668q0 325 207.5 504.5t581.5 179.5q373 0 576.5 -178.5t203.5 -505.5q0 -331 -202.5 -509.5t-577.5 -178.5q-379 0 -584 179t-205 509zM487 668q0 -160 88 -241t259 -81q168 0 255 81t87 241q0 155 -88 236t-254 81q-169 0 -258 -80.5
t-89 -236.5z" />
    <glyph glyph-name="Ocircumflex" unicode="&#xd4;" horiz-adv-x="1662" 
d="M666 1374h-314l346 369h267l346 -369h-314l-166 178zM47 668q0 325 207.5 504.5t581.5 179.5q373 0 576.5 -178.5t203.5 -505.5q0 -331 -202.5 -509.5t-577.5 -178.5q-379 0 -584 179t-205 509zM487 668q0 -160 88 -241t259 -81q168 0 255 81t87 241q0 155 -88 236
t-254 81q-169 0 -258 -80.5t-89 -236.5z" />
    <glyph glyph-name="Otilde" unicode="&#xd5;" horiz-adv-x="1662" 
d="M842 1704q72 -35 127 -35q61 0 61 49h215q0 -132 -74.5 -207t-187.5 -75q-83 0 -160 39q-69 34 -127 34q-61 0 -61 -49h-215q0 132 74.5 207.5t187.5 75.5q83 0 160 -39zM47 668q0 325 207.5 504.5t581.5 179.5q373 0 576.5 -178.5t203.5 -505.5q0 -331 -202.5 -509.5
t-577.5 -178.5q-379 0 -584 179t-205 509zM487 668q0 -160 88 -241t259 -81q168 0 255 81t87 241q0 155 -88 236t-254 81q-169 0 -258 -80.5t-89 -236.5z" />
    <glyph glyph-name="Odieresis" unicode="&#xd6;" horiz-adv-x="1662" 
d="M477 1608q0 66 43.5 108.5t110.5 42.5q69 0 112 -42.5t43 -108.5t-43 -109t-112 -43q-67 0 -110.5 43t-43.5 109zM877 1608q0 66 43 108.5t110 42.5q69 0 112.5 -42.5t43.5 -108.5t-43.5 -109t-112.5 -43q-67 0 -110 43t-43 109zM47 668q0 325 207.5 504.5t581.5 179.5
q373 0 576.5 -178.5t203.5 -505.5q0 -331 -202.5 -509.5t-577.5 -178.5q-379 0 -584 179t-205 509zM487 668q0 -160 88 -241t259 -81q168 0 255 81t87 241q0 155 -88 236t-254 81q-169 0 -258 -80.5t-89 -236.5z" />
    <glyph glyph-name="multiply" unicode="&#xd7;" horiz-adv-x="995" 
d="M913 438l-186 -188l-229 229l-228 -227l-188 186l229 230l-229 227l188 186l228 -227l229 229l186 -188l-227 -227z" />
    <glyph glyph-name="Oslash" unicode="&#xd8;" horiz-adv-x="1662" 
d="M47 668q0 178 61.5 312t172.5 214t253.5 119t315.5 39l31 -2h14l33 90h370l-57 -160q183 -77 279 -232.5t96 -379.5q0 -146 -39 -262t-109 -195t-170 -131.5t-218.5 -76t-258.5 -23.5l-47 2l-37 -101h-370l61 170q-187 77 -284 233.5t-97 383.5zM487 668q0 -153 78 -234
l197 547h-2q-134 -15 -203.5 -94.5t-69.5 -218.5zM1100 891l-195 -541h2q269 36 269 318q0 141 -76 223z" />
    <glyph glyph-name="Ugrave" unicode="&#xd9;" horiz-adv-x="1562" 
d="M784 1395l-352 381h379l322 -381h-349zM782 307q149 0 209 68.5t60 224.5v731h430v-786q0 -271 -177.5 -418t-521.5 -147t-522 146t-178 419v786h430v-731q0 -156 60 -224.5t210 -68.5z" />
    <glyph glyph-name="Uacute" unicode="&#xda;" horiz-adv-x="1562" 
d="M780 1395h-348l322 381h379zM782 307q149 0 209 68.5t60 224.5v731h430v-786q0 -271 -177.5 -418t-521.5 -147t-522 146t-178 419v786h430v-731q0 -156 60 -224.5t210 -68.5z" />
    <glyph glyph-name="Ucircumflex" unicode="&#xdb;" horiz-adv-x="1562" 
d="M616 1374h-313l346 369h266l347 -369h-314l-166 178zM782 307q149 0 209 68.5t60 224.5v731h430v-786q0 -271 -177.5 -418t-521.5 -147t-522 146t-178 419v786h430v-731q0 -156 60 -224.5t210 -68.5z" />
    <glyph glyph-name="Udieresis" unicode="&#xdc;" horiz-adv-x="1562" 
d="M428 1608q0 66 43.5 108.5t110.5 42.5q69 0 112 -42.5t43 -108.5t-43 -109t-112 -43q-67 0 -110.5 43t-43.5 109zM827 1608q0 66 43.5 108.5t110.5 42.5q69 0 112.5 -42.5t43.5 -108.5t-43.5 -109t-112.5 -43q-67 0 -110.5 43t-43.5 109zM782 307q149 0 209 68.5
t60 224.5v731h430v-786q0 -271 -177.5 -418t-521.5 -147t-522 146t-178 419v786h430v-731q0 -156 60 -224.5t210 -68.5z" />
    <glyph glyph-name="Yacute" unicode="&#xdd;" horiz-adv-x="1595" 
d="M797 1395h-348l321 381h379zM0 1331h483l316 -510l313 510h483l-581 -872v-459h-430v457z" />
    <glyph glyph-name="Thorn" unicode="&#xde;" horiz-adv-x="1525" 
d="M866 1159q300 0 456.5 -128t156.5 -374q0 -483 -613 -483h-344v-174h-430v1331h430v-172h344zM522 500h301q114 0 164.5 37t50.5 120q0 82 -51 119t-164 37h-301v-313z" />
    <glyph glyph-name="germandbls" unicode="&#xdf;" horiz-adv-x="1591" 
d="M1550 365q0 -190 -155.5 -287.5t-452.5 -97.5q-164 0 -278 8v299q52 -6 150.5 -10.5t131.5 -2.5q104 3 152.5 17t48.5 45q0 28 -26.5 50.5t-69 40t-94 35t-102.5 41.5t-93.5 53.5t-69 76.5t-26.5 106q0 56 28.5 105t69.5 84t82 66.5t69.5 67t28.5 71.5q0 58 -64 94.5
t-165 36.5q-104 0 -163.5 -44t-59.5 -122v-1098h-410v1169q0 200 171.5 314t473.5 114q298 0 459.5 -108t161.5 -307q0 -62 -20 -114t-50.5 -85t-66 -62t-66 -47.5t-50.5 -40t-20 -42.5q0 -19 20.5 -35.5t54 -29t76 -28.5t87 -32.5t87 -44t76 -61t54 -84t20.5 -111.5z" />
    <glyph glyph-name="agrave" unicode="&#xe0;" horiz-adv-x="1380" 
d="M692 1210l-352 381h379l321 -381h-348zM41 319q0 161 99.5 243.5t293.5 82.5h465v64q0 74 -53 107.5t-168 33.5q-119 0 -172.5 -21.5t-56.5 -70.5h-377q0 201 157 305t459 104q282 0 451.5 -97.5t169.5 -260.5v-809h-336l-58 143q-74 -79 -189.5 -121t-250.5 -42
q-214 0 -324 90t-110 249zM899 416v26h-317q-66 0 -96.5 -21t-30.5 -65q0 -49 34 -70.5t111 -21.5q103 0 189 42.5t110 109.5z" />
    <glyph glyph-name="aacute" unicode="&#xe1;" horiz-adv-x="1380" 
d="M688 1210h-348l322 381h378zM41 319q0 161 99.5 243.5t293.5 82.5h465v64q0 74 -53 107.5t-168 33.5q-119 0 -172.5 -21.5t-56.5 -70.5h-377q0 201 157 305t459 104q282 0 451.5 -97.5t169.5 -260.5v-809h-336l-58 143q-74 -79 -189.5 -121t-250.5 -42q-214 0 -324 90
t-110 249zM899 416v26h-317q-66 0 -96.5 -21t-30.5 -65q0 -49 34 -70.5t111 -21.5q103 0 189 42.5t110 109.5z" />
    <glyph glyph-name="acircumflex" unicode="&#xe2;" horiz-adv-x="1380" 
d="M524 1190h-313l346 369h266l346 -369h-313l-166 178zM41 319q0 161 99.5 243.5t293.5 82.5h465v64q0 74 -53 107.5t-168 33.5q-119 0 -172.5 -21.5t-56.5 -70.5h-377q0 201 157 305t459 104q282 0 451.5 -97.5t169.5 -260.5v-809h-336l-58 143q-74 -79 -189.5 -121
t-250.5 -42q-214 0 -324 90t-110 249zM899 416v26h-317q-66 0 -96.5 -21t-30.5 -65q0 -49 34 -70.5t111 -21.5q103 0 189 42.5t110 109.5z" />
    <glyph glyph-name="atilde" unicode="&#xe3;" horiz-adv-x="1380" 
d="M700 1520q72 -35 127 -35q62 0 62 49h215q0 -132 -74.5 -207.5t-187.5 -75.5q-83 0 -160 39q-72 35 -127 35q-61 0 -61 -49h-215q0 132 74.5 207.5t187.5 75.5q82 0 159 -39zM41 319q0 161 99.5 243.5t293.5 82.5h465v64q0 74 -53 107.5t-168 33.5q-119 0 -172.5 -21.5
t-56.5 -70.5h-377q0 201 157 305t459 104q282 0 451.5 -97.5t169.5 -260.5v-809h-336l-58 143q-74 -79 -189.5 -121t-250.5 -42q-214 0 -324 90t-110 249zM899 416v26h-317q-66 0 -96.5 -21t-30.5 -65q0 -49 34 -70.5t111 -21.5q103 0 189 42.5t110 109.5z" />
    <glyph glyph-name="adieresis" unicode="&#xe4;" horiz-adv-x="1380" 
d="M336 1423q0 66 43 109t110 43q69 0 112.5 -43t43.5 -109t-43.5 -108.5t-112.5 -42.5q-67 0 -110 42.5t-43 108.5zM735 1423q0 66 43.5 109t110.5 43q69 0 112 -43t43 -109t-43 -108.5t-112 -42.5q-67 0 -110.5 42.5t-43.5 108.5zM41 319q0 161 99.5 243.5t293.5 82.5h465
v64q0 74 -53 107.5t-168 33.5q-119 0 -172.5 -21.5t-56.5 -70.5h-377q0 201 157 305t459 104q282 0 451.5 -97.5t169.5 -260.5v-809h-336l-58 143q-74 -79 -189.5 -121t-250.5 -42q-214 0 -324 90t-110 249zM899 416v26h-317q-66 0 -96.5 -21t-30.5 -65q0 -49 34 -70.5
t111 -21.5q103 0 189 42.5t110 109.5z" />
    <glyph glyph-name="aring" unicode="&#xe5;" horiz-adv-x="1380" 
d="M369 1462q0 125 90 202t231 77q140 0 231 -77.5t91 -201.5q0 -123 -91.5 -200.5t-230.5 -77.5q-141 0 -231 77t-90 201zM575 1462q0 -38 31.5 -61t83.5 -23t83.5 23t31.5 61t-31.5 61t-83.5 23t-83.5 -23t-31.5 -61zM41 319q0 161 99.5 243.5t293.5 82.5h465v64
q0 74 -53 107.5t-168 33.5q-119 0 -172.5 -21.5t-56.5 -70.5h-377q0 201 157 305t459 104q282 0 451.5 -97.5t169.5 -260.5v-809h-336l-58 143q-74 -79 -189.5 -121t-250.5 -42q-214 0 -324 90t-110 249zM899 416v26h-317q-66 0 -96.5 -21t-30.5 -65q0 -49 34 -70.5
t111 -21.5q103 0 189 42.5t110 109.5z" />
    <glyph glyph-name="ae" unicode="&#xe6;" horiz-adv-x="2279" 
d="M41 319q0 161 99.5 243.5t293.5 82.5h465v64q0 74 -53 107.5t-168 33.5q-119 0 -172.5 -21.5t-56.5 -70.5h-377q0 201 157 305t459 104q291 0 459 -102q169 102 442 102q297 0 461 -123t184 -360q9 -94 -4 -211h-905q47 -176 281 -176q176 0 231 102h393
q-40 -207 -202 -313t-437 -106q-373 0 -553 192q-142 -192 -510 -192q-250 0 -368.5 88.5t-118.5 250.5zM1329 690h524q-10 76 -77.5 118t-180.5 42q-212 0 -266 -160zM899 416v26h-317q-66 0 -96.5 -21t-30.5 -65q0 -49 34 -70.5t111 -21.5q103 0 189 42.5t110 109.5z" />
    <glyph glyph-name="ccedilla" unicode="&#xe7;" horiz-adv-x="1433" 
d="M735 813q-144 0 -212 -58.5t-68 -179.5q0 -122 67 -180.5t211 -58.5q122 0 183.5 35.5t78.5 117.5h398q-27 -432 -492 -497q29 -37 46.5 -89t17.5 -102q0 -148 -134 -223t-360 -55v256q97 -9 149 22.5t52 100.5q0 40 -29 80q-293 19 -447.5 171.5t-154.5 421.5
q0 286 178 439t508 153q640 0 664 -530h-398q-20 92 -82 134t-176 42z" />
    <glyph glyph-name="egrave" unicode="&#xe8;" horiz-adv-x="1421" 
d="M713 1210l-353 381h379l322 -381h-348zM733 -20q-334 0 -513 154t-179 441q0 285 179 438.5t511 153.5q297 0 461 -123t184 -360q9 -94 -4 -211h-905q47 -176 281 -176q176 0 231 102h393q-40 -207 -202 -313t-437 -106zM471 690h524q-10 76 -77.5 118t-180.5 42
q-212 0 -266 -160z" />
    <glyph glyph-name="eacute" unicode="&#xe9;" horiz-adv-x="1421" 
d="M709 1210h-349l322 381h379zM733 -20q-334 0 -513 154t-179 441q0 285 179 438.5t511 153.5q297 0 461 -123t184 -360q9 -94 -4 -211h-905q47 -176 281 -176q176 0 231 102h393q-40 -207 -202 -313t-437 -106zM471 690h524q-10 76 -77.5 118t-180.5 42q-212 0 -266 -160z
" />
    <glyph glyph-name="ecircumflex" unicode="&#xea;" horiz-adv-x="1421" 
d="M545 1190h-314l347 369h266l346 -369h-313l-166 178zM733 -20q-334 0 -513 154t-179 441q0 285 179 438.5t511 153.5q297 0 461 -123t184 -360q9 -94 -4 -211h-905q47 -176 281 -176q176 0 231 102h393q-40 -207 -202 -313t-437 -106zM471 690h524q-10 76 -77.5 118
t-180.5 42q-212 0 -266 -160z" />
    <glyph glyph-name="edieresis" unicode="&#xeb;" horiz-adv-x="1421" 
d="M356 1423q0 66 43.5 109t110.5 43q69 0 112.5 -43t43.5 -109t-43.5 -108.5t-112.5 -42.5q-67 0 -110.5 42.5t-43.5 108.5zM756 1423q0 66 43 109t110 43q69 0 112.5 -43t43.5 -109t-43.5 -108.5t-112.5 -42.5q-67 0 -110 42.5t-43 108.5zM733 -20q-334 0 -513 154
t-179 441q0 285 179 438.5t511 153.5q297 0 461 -123t184 -360q9 -94 -4 -211h-905q47 -176 281 -176q176 0 231 102h393q-40 -207 -202 -313t-437 -106zM471 690h524q-10 76 -77.5 118t-180.5 42q-212 0 -266 -160z" />
    <glyph glyph-name="igrave" unicode="&#xec;" horiz-adv-x="600" 
d="M301 1210l-352 381h379l321 -381h-348zM96 0v1147h410v-1147h-410z" />
    <glyph glyph-name="iacute" unicode="&#xed;" horiz-adv-x="600" 
d="M297 1210h-348l321 381h379zM96 0v1147h410v-1147h-410z" />
    <glyph glyph-name="icircumflex" unicode="&#xee;" horiz-adv-x="600" 
d="M133 1190h-313l346 369h266l346 -369h-313l-166 178zM96 0v1147h410v-1147h-410z" />
    <glyph glyph-name="idieresis" unicode="&#xef;" horiz-adv-x="600" 
d="M-55 1423q0 66 43 109t110 43q69 0 112.5 -43t43.5 -109t-43.5 -108.5t-112.5 -42.5q-67 0 -110 42.5t-43 108.5zM344 1423q0 66 43.5 109t110.5 43q69 0 112 -43t43 -109t-43 -108.5t-112 -42.5q-67 0 -110.5 42.5t-43.5 108.5zM96 0v1147h410v-1147h-410z" />
    <glyph glyph-name="eth" unicode="&#xf0;" horiz-adv-x="1361" 
d="M1321 655q0 -341 -172.5 -508t-523.5 -167q-272 0 -428 108t-156 297q0 190 131.5 288.5t388.5 98.5q192 0 340 -59q-38 146 -244 225l-116 -133l-131 100l69 80q-114 19 -235 19v348q269 0 495 -70l113 129l131 -100l-80 -90q198 -94 308 -240.5t110 -325.5zM883 455
q-140 45 -246 45q-182 0 -182 -97q0 -46 50.5 -71t143.5 -25q96 0 152 35t82 113z" />
    <glyph glyph-name="ntilde" unicode="&#xf1;" 
d="M754 1520q72 -35 127 -35q61 0 61 49h215q0 -132 -74.5 -207.5t-187.5 -75.5q-83 0 -160 39q-72 35 -127 35q-61 0 -61 -49h-215q0 132 74.5 207.5t187.5 75.5q83 0 160 -39zM82 0v1147h336l53 -154q90 87 198 130.5t259 43.5q214 0 350.5 -125.5t136.5 -316.5v-725h-409
v621q0 104 -53 150t-173 46q-82 0 -158 -39t-130 -108v-670h-410z" />
    <glyph glyph-name="ograve" unicode="&#xf2;" horiz-adv-x="1499" 
d="M752 1210l-353 381h379l322 -381h-348zM41 575q0 286 183.5 439t527.5 153q341 0 523.5 -153t182.5 -439q0 -288 -182 -441.5t-524 -153.5q-344 0 -527.5 153t-183.5 442zM455 575q0 -122 72 -180.5t223 -58.5q148 0 220 59t72 180q0 238 -292 238q-295 0 -295 -238z" />
    <glyph glyph-name="oacute" unicode="&#xf3;" horiz-adv-x="1499" 
d="M748 1210h-349l322 381h379zM41 575q0 286 183.5 439t527.5 153q341 0 523.5 -153t182.5 -439q0 -288 -182 -441.5t-524 -153.5q-344 0 -527.5 153t-183.5 442zM455 575q0 -122 72 -180.5t223 -58.5q148 0 220 59t72 180q0 238 -292 238q-295 0 -295 -238z" />
    <glyph glyph-name="ocircumflex" unicode="&#xf4;" horiz-adv-x="1499" 
d="M584 1190h-314l346 369h267l346 -369h-314l-165 178zM41 575q0 286 183.5 439t527.5 153q341 0 523.5 -153t182.5 -439q0 -288 -182 -441.5t-524 -153.5q-344 0 -527.5 153t-183.5 442zM455 575q0 -122 72 -180.5t223 -58.5q148 0 220 59t72 180q0 238 -292 238
q-295 0 -295 -238z" />
    <glyph glyph-name="otilde" unicode="&#xf5;" horiz-adv-x="1499" 
d="M760 1520q72 -35 127 -35q61 0 61 49h215q0 -132 -74.5 -207.5t-187.5 -75.5q-83 0 -160 39q-72 35 -127 35q-61 0 -61 -49h-215q0 132 74.5 207.5t187.5 75.5q83 0 160 -39zM41 575q0 286 183.5 439t527.5 153q341 0 523.5 -153t182.5 -439q0 -288 -182 -441.5
t-524 -153.5q-344 0 -527.5 153t-183.5 442zM455 575q0 -122 72 -180.5t223 -58.5q148 0 220 59t72 180q0 238 -292 238q-295 0 -295 -238z" />
    <glyph glyph-name="odieresis" unicode="&#xf6;" horiz-adv-x="1499" 
d="M395 1423q0 66 43.5 109t110.5 43q69 0 112.5 -43t43.5 -109t-43.5 -108.5t-112.5 -42.5q-67 0 -110.5 42.5t-43.5 108.5zM795 1423q0 66 43 109t110 43q69 0 112.5 -43t43.5 -109t-43.5 -108.5t-112.5 -42.5q-67 0 -110 42.5t-43 108.5zM41 575q0 286 183.5 439
t527.5 153q341 0 523.5 -153t182.5 -439q0 -288 -182 -441.5t-524 -153.5q-344 0 -527.5 153t-183.5 442zM455 575q0 -122 72 -180.5t223 -58.5q148 0 220 59t72 180q0 238 -292 238q-295 0 -295 -238z" />
    <glyph glyph-name="divide" unicode="&#xf7;" horiz-adv-x="1040" 
d="M346 969q0 70 48 115.5t122 45.5q79 0 128.5 -45t49.5 -116q0 -70 -49.5 -115t-128.5 -45q-73 0 -121.5 45.5t-48.5 114.5zM82 440v267h876v-267h-876zM346 176q0 70 48 116t122 46q79 0 128.5 -45.5t49.5 -116.5q0 -70 -49.5 -115t-128.5 -45q-73 0 -121.5 45.5
t-48.5 114.5z" />
    <glyph glyph-name="oslash" unicode="&#xf8;" horiz-adv-x="1499" 
d="M41 575q0 286 183.5 439t527.5 153h43l45 123h340l-66 -182q168 -66 256 -201.5t88 -331.5q0 -288 -182 -441.5t-524 -153.5h-43l-50 -134h-340l70 193q-171 66 -259.5 201.5t-88.5 334.5zM455 575q0 -115 65 -174l146 406h-2q-209 -30 -209 -232zM983 743l-145 -401h2
q202 30 202 233q0 112 -59 168z" />
    <glyph glyph-name="ugrave" unicode="&#xf9;" 
d="M745 1210l-352 381h379l322 -381h-349zM1405 1147v-1147h-336l-53 154q-90 -87 -198 -130.5t-259 -43.5q-214 0 -350.5 125.5t-136.5 316.5v725h409v-621q0 -104 53 -150t173 -46q82 0 158 39t130 108v670h410z" />
    <glyph glyph-name="uacute" unicode="&#xfa;" 
d="M741 1210h-348l322 381h379zM1405 1147v-1147h-336l-53 154q-90 -87 -198 -130.5t-259 -43.5q-214 0 -350.5 125.5t-136.5 316.5v725h409v-621q0 -104 53 -150t173 -46q82 0 158 39t130 108v670h410z" />
    <glyph glyph-name="ucircumflex" unicode="&#xfb;" 
d="M578 1190h-314l346 369h267l346 -369h-314l-166 178zM1405 1147v-1147h-336l-53 154q-90 -87 -198 -130.5t-259 -43.5q-214 0 -350.5 125.5t-136.5 316.5v725h409v-621q0 -104 53 -150t173 -46q82 0 158 39t130 108v670h410z" />
    <glyph glyph-name="udieresis" unicode="&#xfc;" 
d="M389 1423q0 66 43.5 109t110.5 43q69 0 112 -43t43 -109t-43 -108.5t-112 -42.5q-67 0 -110.5 42.5t-43.5 108.5zM788 1423q0 66 43.5 109t110.5 43q69 0 112.5 -43t43.5 -109t-43.5 -108.5t-112.5 -42.5q-67 0 -110.5 42.5t-43.5 108.5zM1405 1147v-1147h-336l-53 154
q-90 -87 -198 -130.5t-259 -43.5q-214 0 -350.5 125.5t-136.5 316.5v725h409v-621q0 -104 53 -150t173 -46q82 0 158 39t130 108v670h410z" />
    <glyph glyph-name="yacute" unicode="&#xfd;" horiz-adv-x="1447" 
d="M723 1210h-348l321 381h379zM115 -367v328h350q43 0 67 16l-532 1170h449l272 -739l289 739h438l-547 -1253q-59 -135 -138.5 -198t-203.5 -63h-444z" />
    <glyph glyph-name="thorn" unicode="&#xfe;" horiz-adv-x="1533" 
d="M864 -20q-220 0 -372 124v-473h-410v1844h410v-424q162 116 370 116q317 0 474 -147t157 -445q0 -299 -156.5 -447t-472.5 -148zM492 688v-227q125 -125 317 -125q138 0 203 58.5t65 180.5q0 123 -68 180.5t-214 57.5q-87 0 -158.5 -28.5t-144.5 -96.5z" />
    <glyph glyph-name="ydieresis" unicode="&#xff;" horiz-adv-x="1447" 
d="M371 1423q0 66 43 109t110 43q69 0 112.5 -43t43.5 -109t-43.5 -108.5t-112.5 -42.5q-67 0 -110 42.5t-43 108.5zM770 1423q0 66 43.5 109t110.5 43q69 0 112 -43t43 -109t-43 -108.5t-112 -42.5q-67 0 -110.5 42.5t-43.5 108.5zM115 -367v328h350q43 0 67 16l-532 1170
h449l272 -739l289 739h438l-547 -1253q-59 -135 -138.5 -198t-203.5 -63h-444z" />
    <glyph glyph-name="Amacron" unicode="&#x100;" horiz-adv-x="1595" 
d="M481 1475v266h635v-266h-635zM0 0l526 1331h543l526 -1331h-452l-66 186h-559l-65 -186h-453zM629 494h338l-168 473z" />
    <glyph glyph-name="amacron" unicode="&#x101;" horiz-adv-x="1380" 
d="M373 1290v266h635v-266h-635zM41 319q0 161 99.5 243.5t293.5 82.5h465v64q0 74 -53 107.5t-168 33.5q-119 0 -172.5 -21.5t-56.5 -70.5h-377q0 201 157 305t459 104q282 0 451.5 -97.5t169.5 -260.5v-809h-336l-58 143q-74 -79 -189.5 -121t-250.5 -42q-214 0 -324 90
t-110 249zM899 416v26h-317q-66 0 -96.5 -21t-30.5 -65q0 -49 34 -70.5t111 -21.5q103 0 189 42.5t110 109.5z" />
    <glyph glyph-name="Abreve" unicode="&#x102;" horiz-adv-x="1595" 
d="M799 1620q83 0 123.5 38.5t35.5 113.5h234q0 -400 -393 -400t-393 400h233q-6 -75 34.5 -113.5t125.5 -38.5zM0 0l526 1331h543l526 -1331h-452l-66 186h-559l-65 -186h-453zM629 494h338l-168 473z" />
    <glyph glyph-name="abreve" unicode="&#x103;" horiz-adv-x="1380" 
d="M690 1436q83 0 123.5 38t36.5 113h233q0 -201 -97.5 -300t-295.5 -99t-295.5 99t-97.5 300h233q-6 -75 34.5 -113t125.5 -38zM41 319q0 161 99.5 243.5t293.5 82.5h465v64q0 74 -53 107.5t-168 33.5q-119 0 -172.5 -21.5t-56.5 -70.5h-377q0 201 157 305t459 104
q282 0 451.5 -97.5t169.5 -260.5v-809h-336l-58 143q-74 -79 -189.5 -121t-250.5 -42q-214 0 -324 90t-110 249zM899 416v26h-317q-66 0 -96.5 -21t-30.5 -65q0 -49 34 -70.5t111 -21.5q103 0 189 42.5t110 109.5z" />
    <glyph glyph-name="Aogonek" unicode="&#x104;" horiz-adv-x="1595" 
d="M0 0l526 1331h543l526 -1331h-157q-43 -49 -43 -98q0 -69 51.5 -100.5t148.5 -22.5v-256q-226 -20 -359.5 55t-133.5 223q0 52 19 107t50 92h-28l-66 186h-559l-65 -186h-453zM629 494h338l-168 473z" />
    <glyph glyph-name="aogonek" unicode="&#x105;" horiz-adv-x="1380" 
d="M41 319q0 161 99.5 243.5t293.5 82.5h465v64q0 74 -53 107.5t-168 33.5q-119 0 -172.5 -21.5t-56.5 -70.5h-377q0 201 157 305t459 104q282 0 451.5 -97.5t169.5 -260.5v-809h-33q-43 -49 -43 -98q0 -119 147 -125v-258q-203 -6 -321.5 69.5t-118.5 212.5q0 52 19.5 107
t50.5 92h-37l-58 143q-74 -79 -189.5 -121t-250.5 -42q-214 0 -324 90t-110 249zM899 416v26h-317q-66 0 -96.5 -21t-30.5 -65q0 -49 34 -70.5t111 -21.5q103 0 189 42.5t110 109.5z" />
    <glyph glyph-name="Cacute" unicode="&#x106;" horiz-adv-x="1585" 
d="M791 1395h-349l322 381h379zM47 668q0 325 202 504.5t568 179.5q324 0 509 -144.5t208 -412.5h-434q-50 190 -289 190q-158 0 -241 -80.5t-83 -236.5q0 -322 332 -322q133 0 203.5 56.5t85.5 172.5h430q-11 -289 -196 -442t-525 -153q-370 0 -570 179t-200 509z" />
    <glyph glyph-name="cacute" unicode="&#x107;" horiz-adv-x="1433" 
d="M715 1210h-348l321 381h379zM735 813q-144 0 -212 -58.5t-68 -179.5q0 -122 67 -180.5t211 -58.5q122 0 183.5 35.5t78.5 117.5h398q-35 -509 -666 -509q-333 0 -509.5 153.5t-176.5 441.5q0 286 178 439t508 153q640 0 664 -530h-398q-20 92 -82 134t-176 42z" />
    <glyph glyph-name="Ccircumflex" unicode="&#x108;" horiz-adv-x="1585" 
d="M627 1374h-314l346 369h267l346 -369h-314l-165 178zM47 668q0 325 202 504.5t568 179.5q324 0 509 -144.5t208 -412.5h-434q-50 190 -289 190q-158 0 -241 -80.5t-83 -236.5q0 -322 332 -322q133 0 203.5 56.5t85.5 172.5h430q-11 -289 -196 -442t-525 -153
q-370 0 -570 179t-200 509z" />
    <glyph glyph-name="ccircumflex" unicode="&#x109;" horiz-adv-x="1433" 
d="M551 1190h-313l346 369h266l346 -369h-313l-166 178zM735 813q-144 0 -212 -58.5t-68 -179.5q0 -122 67 -180.5t211 -58.5q122 0 183.5 35.5t78.5 117.5h398q-35 -509 -666 -509q-333 0 -509.5 153.5t-176.5 441.5q0 286 178 439t508 153q640 0 664 -530h-398
q-20 92 -82 134t-176 42z" />
    <glyph glyph-name="Cdotaccent" unicode="&#x10a;" horiz-adv-x="1585" 
d="M621 1595q0 80 45.5 126t124.5 46q81 0 128.5 -47t47.5 -125t-47.5 -125t-128.5 -47q-79 0 -124.5 46t-45.5 126zM47 668q0 325 202 504.5t568 179.5q324 0 509 -144.5t208 -412.5h-434q-50 190 -289 190q-158 0 -241 -80.5t-83 -236.5q0 -322 332 -322q133 0 203.5 56.5
t85.5 172.5h430q-11 -289 -196 -442t-525 -153q-370 0 -570 179t-200 509z" />
    <glyph glyph-name="cdotaccent" unicode="&#x10b;" horiz-adv-x="1433" 
d="M545 1411q0 80 45.5 126t124.5 46q81 0 128.5 -47t47.5 -125t-47.5 -125t-128.5 -47q-79 0 -124.5 46t-45.5 126zM735 813q-144 0 -212 -58.5t-68 -179.5q0 -122 67 -180.5t211 -58.5q122 0 183.5 35.5t78.5 117.5h398q-35 -509 -666 -509q-333 0 -509.5 153.5
t-176.5 441.5q0 286 178 439t508 153q640 0 664 -530h-398q-20 92 -82 134t-176 42z" />
    <glyph glyph-name="Ccaron" unicode="&#x10c;" horiz-adv-x="1585" 
d="M627 1743l166 -178l165 178h314l-346 -369h-267l-346 369h314zM47 668q0 325 202 504.5t568 179.5q324 0 509 -144.5t208 -412.5h-434q-50 190 -289 190q-158 0 -241 -80.5t-83 -236.5q0 -322 332 -322q133 0 203.5 56.5t85.5 172.5h430q-11 -289 -196 -442t-525 -153
q-370 0 -570 179t-200 509z" />
    <glyph glyph-name="ccaron" unicode="&#x10d;" horiz-adv-x="1433" 
d="M551 1559l166 -179l166 179h313l-346 -369h-266l-346 369h313zM735 813q-144 0 -212 -58.5t-68 -179.5q0 -122 67 -180.5t211 -58.5q122 0 183.5 35.5t78.5 117.5h398q-35 -509 -666 -509q-333 0 -509.5 153.5t-176.5 441.5q0 286 178 439t508 153q640 0 664 -530h-398
q-20 92 -82 134t-176 42z" />
    <glyph glyph-name="Dcaron" unicode="&#x10e;" horiz-adv-x="1591" 
d="M631 1743l166 -178l166 178h313l-346 -369h-266l-347 369h314zM836 1331q341 0 524.5 -169.5t183.5 -493.5q0 -329 -182.5 -498.5t-525.5 -169.5h-744v1331h744zM522 346h312q133 0 201.5 81t68.5 241q0 155 -69.5 236t-200.5 81h-312v-639z" />
    <glyph glyph-name="dcaron" unicode="&#x10f;" horiz-adv-x="1933" 
d="M1452 0h-328l-47 133q-167 -153 -407 -153q-316 0 -472.5 148t-156.5 447q0 298 157 445t474 147q208 0 370 -116v424h410v-1475zM1595 903v531h308l-103 -531h-205zM1042 461v227q-73 68 -144.5 96.5t-158.5 28.5q-146 0 -214 -57.5t-68 -180.5q0 -122 65 -180.5
t203 -58.5q192 0 317 125z" />
    <glyph glyph-name="Dcroat" unicode="&#x110;" horiz-adv-x="1611" 
d="M856 1331q341 0 525 -169.5t184 -493.5q0 -329 -183 -498.5t-526 -169.5h-743v547h-103v266h103v518h743zM543 346h311q133 0 201.5 81t68.5 241q0 155 -69.5 236t-200.5 81h-311v-172h284v-266h-284v-201z" />
    <glyph glyph-name="dcroat" unicode="&#x111;" horiz-adv-x="1585" 
d="M1452 0h-328l-47 133q-167 -153 -407 -153q-316 0 -472.5 148t-156.5 447q0 298 157 445t474 147q208 0 370 -116v116h-157v205h157v103h410v-103h123v-205h-123v-1167zM1042 461v227q-73 68 -144.5 96.5t-158.5 28.5q-146 0 -214 -57.5t-68 -180.5q0 -122 65 -180.5
t203 -58.5q192 0 317 125z" />
    <glyph glyph-name="Emacron" unicode="&#x112;" horiz-adv-x="1333" 
d="M350 1475v266h635v-266h-635zM92 0v1331h1180v-348h-750v-154h688v-307h-688v-174h750v-348h-1180z" />
    <glyph glyph-name="emacron" unicode="&#x113;" horiz-adv-x="1421" 
d="M393 1290v266h635v-266h-635zM733 -20q-334 0 -513 154t-179 441q0 285 179 438.5t511 153.5q297 0 461 -123t184 -360q9 -94 -4 -211h-905q47 -176 281 -176q176 0 231 102h393q-40 -207 -202 -313t-437 -106zM471 690h524q-10 76 -77.5 118t-180.5 42q-212 0 -266 -160
z" />
    <glyph glyph-name="Ebreve" unicode="&#x114;" horiz-adv-x="1333" 
d="M668 1620q83 0 123.5 38.5t35.5 113.5h234q0 -400 -393 -400q-394 0 -394 400h234q-6 -75 34.5 -113.5t125.5 -38.5zM92 0v1331h1180v-348h-750v-154h688v-307h-688v-174h750v-348h-1180z" />
    <glyph glyph-name="ebreve" unicode="&#x115;" horiz-adv-x="1421" 
d="M711 1436q83 0 123 38t36 113h234q0 -201 -97.5 -300t-295.5 -99q-394 0 -394 399h234q-6 -75 34.5 -113t125.5 -38zM733 -20q-334 0 -513 154t-179 441q0 285 179 438.5t511 153.5q297 0 461 -123t184 -360q9 -94 -4 -211h-905q47 -176 281 -176q176 0 231 102h393
q-40 -207 -202 -313t-437 -106zM471 690h524q-10 76 -77.5 118t-180.5 42q-212 0 -266 -160z" />
    <glyph glyph-name="Edotaccent" unicode="&#x116;" horiz-adv-x="1333" 
d="M494 1595q0 80 45.5 126t124.5 46q81 0 128.5 -47t47.5 -125t-47.5 -125t-128.5 -47q-79 0 -124.5 46t-45.5 126zM92 0v1331h1180v-348h-750v-154h688v-307h-688v-174h750v-348h-1180z" />
    <glyph glyph-name="edotaccent" unicode="&#x117;" horiz-adv-x="1421" 
d="M539 1411q0 80 45.5 126t124.5 46q81 0 128.5 -47t47.5 -125t-47.5 -125t-128.5 -47q-79 0 -124.5 46t-45.5 126zM733 -20q-334 0 -513 154t-179 441q0 285 179 438.5t511 153.5q297 0 461 -123t184 -360q9 -94 -4 -211h-905q47 -176 281 -176q176 0 231 102h393
q-40 -207 -202 -313t-437 -106zM471 690h524q-10 76 -77.5 118t-180.5 42q-212 0 -266 -160z" />
    <glyph glyph-name="Eogonek" unicode="&#x118;" horiz-adv-x="1333" 
d="M92 0v1331h1180v-348h-750v-154h688v-307h-688v-174h750v-348h-516q-43 -49 -43 -98q0 -69 51.5 -100.5t148.5 -22.5v-256q-226 -20 -359.5 55t-133.5 223q0 52 19 107t50 92h-397z" />
    <glyph glyph-name="eogonek" unicode="&#x119;" horiz-adv-x="1421" 
d="M758 -98q0 -69 51.5 -100.5t148.5 -22.5v-256q-226 -20 -359.5 55t-133.5 223q0 53 18 105.5t49 89.5q-240 43 -365.5 190.5t-125.5 388.5q0 285 179 438.5t511 153.5q297 0 461 -123t184 -360q9 -94 -4 -211h-905q47 -176 281 -176q176 0 231 102h393
q-38 -198 -187 -304t-401 -115q-26 -36 -26 -78zM471 690h524q-10 76 -77.5 118t-180.5 42q-212 0 -266 -160z" />
    <glyph glyph-name="Ecaron" unicode="&#x11a;" horiz-adv-x="1333" 
d="M502 1743l166 -178l166 178h313l-346 -369h-266l-347 369h314zM92 0v1331h1180v-348h-750v-154h688v-307h-688v-174h750v-348h-1180z" />
    <glyph glyph-name="ecaron" unicode="&#x11b;" horiz-adv-x="1421" 
d="M545 1559l166 -179l166 179h313l-346 -369h-266l-347 369h314zM733 -20q-334 0 -513 154t-179 441q0 285 179 438.5t511 153.5q297 0 461 -123t184 -360q9 -94 -4 -211h-905q47 -176 281 -176q176 0 231 102h393q-40 -207 -202 -313t-437 -106zM471 690h524
q-10 76 -77.5 118t-180.5 42q-212 0 -266 -160z" />
    <glyph glyph-name="Gcircumflex" unicode="&#x11c;" horiz-adv-x="1589" 
d="M629 1374h-314l347 369h266l346 -369h-313l-166 178zM1225 0l-58 104q-148 -124 -411 -124q-331 0 -520 183t-189 505q0 325 201 504.5t565 179.5q300 0 487 -126t213 -356h-448q-57 115 -254 115q-158 0 -241 -80.5t-83 -236.5q0 -322 310 -322q169 0 290 39v117h-268
v246h699v-748h-293z" />
    <glyph glyph-name="gcircumflex" unicode="&#x11d;" horiz-adv-x="1513" 
d="M592 1190h-313l346 369h266l346 -369h-313l-166 178zM1022 123v104q-160 -118 -365 -118q-310 0 -463 132t-153 398q0 265 153.5 396.5t464.5 131.5q106 0 212.5 -35t191.5 -100l41 115h328v-1024q0 -258 -175 -398.5t-499 -140.5q-293 0 -459.5 112.5t-183.5 323.5h422
q2 -55 55.5 -87.5t165.5 -32.5q139 0 201.5 53t62.5 170zM1022 569v119q-72 66 -141.5 95.5t-153.5 29.5q-270 0 -270 -186q0 -183 258 -183q179 0 307 125z" />
    <glyph glyph-name="Gbreve" unicode="&#x11e;" horiz-adv-x="1589" 
d="M795 1620q83 0 123.5 38.5t35.5 113.5h234q0 -400 -393 -400q-394 0 -394 400h234q-6 -75 34.5 -113.5t125.5 -38.5zM1225 0l-58 104q-148 -124 -411 -124q-331 0 -520 183t-189 505q0 325 201 504.5t565 179.5q300 0 487 -126t213 -356h-448q-57 115 -254 115
q-158 0 -241 -80.5t-83 -236.5q0 -322 310 -322q169 0 290 39v117h-268v246h699v-748h-293z" />
    <glyph glyph-name="gbreve" unicode="&#x11f;" horiz-adv-x="1513" 
d="M758 1436q83 0 123.5 38t36.5 113h233q0 -201 -97.5 -300t-295.5 -99t-295.5 99t-97.5 300h233q-6 -75 34.5 -113t125.5 -38zM1022 123v104q-160 -118 -365 -118q-310 0 -463 132t-153 398q0 265 153.5 396.5t464.5 131.5q106 0 212.5 -35t191.5 -100l41 115h328v-1024
q0 -258 -175 -398.5t-499 -140.5q-293 0 -459.5 112.5t-183.5 323.5h422q2 -55 55.5 -87.5t165.5 -32.5q139 0 201.5 53t62.5 170zM1022 569v119q-72 66 -141.5 95.5t-153.5 29.5q-270 0 -270 -186q0 -183 258 -183q179 0 307 125z" />
    <glyph glyph-name="Gdotaccent" unicode="&#x120;" horiz-adv-x="1589" 
d="M623 1595q0 80 45.5 126t124.5 46q81 0 128.5 -47t47.5 -125t-47.5 -125t-128.5 -47q-79 0 -124.5 46t-45.5 126zM1225 0l-58 104q-148 -124 -411 -124q-331 0 -520 183t-189 505q0 325 201 504.5t565 179.5q300 0 487 -126t213 -356h-448q-57 115 -254 115
q-158 0 -241 -80.5t-83 -236.5q0 -322 310 -322q169 0 290 39v117h-268v246h699v-748h-293z" />
    <glyph glyph-name="gdotaccent" unicode="&#x121;" horiz-adv-x="1513" 
d="M584 1411q0 80 45.5 126t124.5 46q81 0 128.5 -47t47.5 -125t-47.5 -125t-128.5 -47q-79 0 -124.5 46t-45.5 126zM1022 123v104q-160 -118 -365 -118q-310 0 -463 132t-153 398q0 265 153.5 396.5t464.5 131.5q106 0 212.5 -35t191.5 -100l41 115h328v-1024
q0 -258 -175 -398.5t-499 -140.5q-293 0 -459.5 112.5t-183.5 323.5h422q2 -55 55.5 -87.5t165.5 -32.5q139 0 201.5 53t62.5 170zM1022 569v119q-72 66 -141.5 95.5t-153.5 29.5q-270 0 -270 -186q0 -183 258 -183q179 0 307 125z" />
    <glyph glyph-name="uni0122" unicode="&#x122;" horiz-adv-x="1589" 
d="M1225 0l-58 104q-148 -124 -411 -124q-331 0 -520 183t-189 505q0 325 201 504.5t565 179.5q300 0 487 -126t213 -356h-448q-57 115 -254 115q-158 0 -241 -80.5t-83 -236.5q0 -322 310 -322q169 0 290 39v117h-268v246h699v-748h-293zM877 -455h-236v373h307z" />
    <glyph glyph-name="uni0123" unicode="&#x123;" horiz-adv-x="1513" 
d="M676 1636h235v-372h-307zM1022 123v104q-160 -118 -365 -118q-310 0 -463 132t-153 398q0 265 153.5 396.5t464.5 131.5q106 0 212.5 -35t191.5 -100l41 115h328v-1024q0 -258 -175 -398.5t-499 -140.5q-293 0 -459.5 112.5t-183.5 323.5h422q2 -55 55.5 -87.5
t165.5 -32.5q139 0 201.5 53t62.5 170zM1022 569v119q-72 66 -141.5 95.5t-153.5 29.5q-270 0 -270 -186q0 -183 258 -183q179 0 307 125z" />
    <glyph glyph-name="Hcircumflex" unicode="&#x124;" horiz-adv-x="1613" 
d="M641 1374h-313l346 369h266l346 -369h-313l-166 178zM92 0v1331h430v-493h570v493h430v-1331h-430v469h-570v-469h-430z" />
    <glyph glyph-name="hcircumflex" unicode="&#x125;" 
d="M131 1538h-313l346 369h266l346 -369h-313l-166 178zM82 0v1495h410v-483q87 77 191 116t245 39q212 0 349.5 -125t137.5 -317v-725h-409v621q0 104 -53 150t-173 46q-82 0 -158 -39t-130 -108v-670h-410z" />
    <glyph glyph-name="Hbar" unicode="&#x126;" horiz-adv-x="1675" 
d="M123 0v944h-113v246h113v141h430v-141h569v141h430v-141h113v-246h-113v-944h-430v469h-569v-469h-430zM553 838h569v106h-569v-106z" />
    <glyph glyph-name="hbar" unicode="&#x127;" horiz-adv-x="1538" 
d="M133 0v1167h-123v205h123v123h410v-123h157v-205h-157v-155q87 77 191 116t245 39q212 0 349.5 -125t137.5 -317v-725h-409v621q0 104 -53 150t-173 46q-82 0 -158 -39t-130 -108v-670h-410z" />
    <glyph glyph-name="Itilde" unicode="&#x128;" horiz-adv-x="614" 
d="M315 1704q72 -35 127 -35q62 0 62 49h215q0 -132 -74.5 -207t-187.5 -75q-83 0 -160 39q-69 34 -127 34q-61 0 -61 -49h-215q0 132 74.5 207.5t187.5 75.5q82 0 159 -39zM92 0v1331h430v-1331h-430z" />
    <glyph glyph-name="itilde" unicode="&#x129;" horiz-adv-x="600" 
d="M309 1520q72 -35 127 -35q62 0 62 49h215q0 -132 -74.5 -207.5t-187.5 -75.5q-83 0 -160 39q-72 35 -127 35q-62 0 -62 -49h-215q0 132 75 207.5t188 75.5q82 0 159 -39zM96 0v1147h410v-1147h-410z" />
    <glyph glyph-name="Imacron" unicode="&#x12a;" horiz-adv-x="614" 
d="M-10 1475v266h635v-266h-635zM92 0v1331h430v-1331h-430z" />
    <glyph glyph-name="imacron" unicode="&#x12b;" horiz-adv-x="600" 
d="M-18 1290v266h634v-266h-634zM96 0v1147h410v-1147h-410z" />
    <glyph glyph-name="Iogonek" unicode="&#x12e;" horiz-adv-x="614" 
d="M92 0v1331h430v-1331h-84q-43 -49 -43 -98q0 -69 52 -100.5t149 -22.5v-256q-226 -20 -360 55t-134 223q0 52 19.5 107t50.5 92h-80z" />
    <glyph glyph-name="iogonek" unicode="&#x12f;" horiz-adv-x="600" 
d="M66 1421q0 90 62 142.5t165 52.5q110 0 176 -53t66 -142t-65.5 -141.5t-176.5 -52.5q-104 0 -165.5 52t-61.5 142zM96 0v1147h410v-1147h-76q-43 -49 -43 -98q0 -69 52 -100.5t149 -22.5v-256q-226 -20 -360 55t-134 223q0 52 19.5 107t50.5 92h-68z" />
    <glyph glyph-name="Idotaccent" unicode="&#x130;" horiz-adv-x="614" 
d="M135 1595q0 80 45.5 126t124.5 46q81 0 128.5 -47t47.5 -125t-47.5 -125t-128.5 -47q-79 0 -124.5 46t-45.5 126zM92 0v1331h430v-1331h-430z" />
    <glyph glyph-name="dotlessi" unicode="&#x131;" horiz-adv-x="600" 
d="M96 0v1147h410v-1147h-410z" />
    <glyph glyph-name="IJ" unicode="&#x132;" horiz-adv-x="1591" 
d="M92 0v1331h430v-1331h-430zM1079 555v776h430v-930q0 -405 -508 -405q-276 0 -346 4v348q78 -4 236 -4q101 0 144.5 48.5t43.5 162.5z" />
    <glyph glyph-name="ij" unicode="&#x133;" horiz-adv-x="1427" 
d="M66 1421q0 90 62 142.5t165 52.5q110 0 176 -53t66 -142t-65.5 -141.5t-176.5 -52.5q-104 0 -165.5 52t-61.5 142zM897 1421q0 90 62 142.5t165 52.5q110 0 176 -53t66 -142t-65.5 -141.5t-176.5 -52.5q-104 0 -165.5 52t-61.5 142zM96 0v1147h410v-1147h-410zM924 180
v967h409v-1143q0 -152 -126.5 -251t-321.5 -99q-197 0 -267 4v334q40 -4 91 -4q116 0 165.5 44t49.5 148z" />
    <glyph glyph-name="Jcircumflex" unicode="&#x134;" horiz-adv-x="976" 
d="M500 1374h-314l346 369h267l346 -369h-314l-165 178zM465 555v776h430v-930q0 -405 -508 -405q-276 0 -346 4v348q78 -4 235 -4q101 0 145 48.5t44 162.5z" />
    <glyph glyph-name="jcircumflex" unicode="&#x135;" horiz-adv-x="827" 
d="M350 1190h-313l346 369h266l346 -369h-313l-166 178zM324 180v967h409v-1143q0 -152 -126.5 -251t-321.5 -99q-197 0 -267 4v334q40 -4 91 -4q116 0 165.5 44t49.5 148z" />
    <glyph glyph-name="uni0136" unicode="&#x136;" horiz-adv-x="1523" 
d="M92 0v1331h430v-489h158l334 489h497l-462 -626l516 -705h-523l-364 514h-156v-514h-430zM864 -455h-235v373h307z" />
    <glyph glyph-name="uni0137" unicode="&#x137;" horiz-adv-x="1476" 
d="M82 0v1495h410v-735h176l303 387h485l-450 -555l501 -592h-512l-342 412h-161v-412h-410zM821 -455h-235v373h307z" />
    <glyph glyph-name="kgreenlandic" unicode="&#x138;" horiz-adv-x="1476" 
d="M82 0v1147h410v-387h176l303 387h485l-450 -555l501 -592h-512l-342 412h-161v-412h-410z" />
    <glyph glyph-name="Lacute" unicode="&#x139;" horiz-adv-x="1226" 
d="M453 1395h-349l322 381h379zM92 0v1331h430v-983h664v-348h-1094z" />
    <glyph glyph-name="lacute" unicode="&#x13a;" horiz-adv-x="573" 
d="M326 1536h-349l322 381h379zM82 0v1495h410v-1495h-410z" />
    <glyph glyph-name="uni013B" unicode="&#x13b;" horiz-adv-x="1226" 
d="M92 0v1331h430v-983h664v-348h-1094zM700 -455h-235v373h307z" />
    <glyph glyph-name="uni013C" unicode="&#x13c;" horiz-adv-x="573" 
d="M82 0v1495h410v-1495h-410zM369 -455h-236v373h307z" />
    <glyph glyph-name="Lcaron" unicode="&#x13d;" horiz-adv-x="1226" 
d="M92 0v1331h430v-983h664v-348h-1094zM811 801v530h307l-102 -530h-205z" />
    <glyph glyph-name="lcaron" unicode="&#x13e;" horiz-adv-x="972" 
d="M82 0v1495h410v-1495h-410zM635 903v531h307l-102 -531h-205z" />
    <glyph glyph-name="Ldot" unicode="&#x13f;" horiz-adv-x="1226" 
d="M92 0v1331h430v-983h664v-348h-1094zM696 860q0 79 51.5 130.5t129.5 51.5q84 0 136 -51t52 -131q0 -79 -52 -129.5t-136 -50.5q-78 0 -129.5 51t-51.5 129z" />
    <glyph glyph-name="ldot" unicode="&#x140;" horiz-adv-x="1105" 
d="M82 0v1495h410v-1495h-410zM623 881q0 79 51 130.5t129 51.5q84 0 136 -51t52 -131q0 -79 -52 -130t-136 -51q-78 0 -129 51.5t-51 129.5z" />
    <glyph glyph-name="Lslash" unicode="&#x141;" horiz-adv-x="1318" 
d="M174 0v446l-164 -84v267l164 84v618h430v-401l297 151v-266l-297 -151v-316h664v-348h-1094z" />
    <glyph glyph-name="lslash" unicode="&#x142;" horiz-adv-x="698" 
d="M143 0v506l-133 -68v277l133 67v713h410v-504l135 70v-277l-135 -69v-715h-410z" />
    <glyph glyph-name="Nacute" unicode="&#x143;" horiz-adv-x="1574" 
d="M786 1395h-348l322 381h379zM1026 0l-504 737v-737h-430v1331h453l508 -737v737h430v-1331h-457z" />
    <glyph glyph-name="nacute" unicode="&#x144;" 
d="M741 1210h-348l322 381h379zM82 0v1147h336l53 -154q90 87 198 130.5t259 43.5q214 0 350.5 -125.5t136.5 -316.5v-725h-409v621q0 104 -53 150t-173 46q-82 0 -158 -39t-130 -108v-670h-410z" />
    <glyph glyph-name="uni0145" unicode="&#x145;" horiz-adv-x="1574" 
d="M1026 0l-504 737v-737h-430v1331h453l508 -737v737h430v-1331h-457zM870 -455h-235v373h307z" />
    <glyph glyph-name="uni0146" unicode="&#x146;" 
d="M82 0v1147h336l53 -154q90 87 198 130.5t259 43.5q214 0 350.5 -125.5t136.5 -316.5v-725h-409v621q0 104 -53 150t-173 46q-82 0 -158 -39t-130 -108v-670h-410zM825 -455h-235v373h307z" />
    <glyph glyph-name="Ncaron" unicode="&#x147;" horiz-adv-x="1574" 
d="M623 1743l165 -178l166 178h314l-346 -369h-267l-346 369h314zM1026 0l-504 737v-737h-430v1331h453l508 -737v737h430v-1331h-457z" />
    <glyph glyph-name="ncaron" unicode="&#x148;" 
d="M578 1559l165 -179l166 179h314l-346 -369h-267l-346 369h314zM82 0v1147h336l53 -154q90 87 198 130.5t259 43.5q214 0 350.5 -125.5t136.5 -316.5v-725h-409v621q0 104 -53 150t-173 46q-82 0 -158 -39t-130 -108v-670h-410z" />
    <glyph glyph-name="napostrophe" unicode="&#x149;" horiz-adv-x="1732" 
d="M0 1231v530h307l-102 -530h-205zM328 0v1147h336l53 -154q90 87 198 130.5t259 43.5q214 0 350.5 -125.5t136.5 -316.5v-725h-410v621q0 104 -52.5 150t-172.5 46q-82 0 -158.5 -39t-130.5 -108v-670h-409z" />
    <glyph glyph-name="Omacron" unicode="&#x14c;" horiz-adv-x="1662" 
d="M514 1475v266h635v-266h-635zM47 668q0 325 207.5 504.5t581.5 179.5q373 0 576.5 -178.5t203.5 -505.5q0 -331 -202.5 -509.5t-577.5 -178.5q-379 0 -584 179t-205 509zM487 668q0 -160 88 -241t259 -81q168 0 255 81t87 241q0 155 -88 236t-254 81q-169 0 -258 -80.5
t-89 -236.5z" />
    <glyph glyph-name="omacron" unicode="&#x14d;" horiz-adv-x="1499" 
d="M432 1290v266h635v-266h-635zM41 575q0 286 183.5 439t527.5 153q341 0 523.5 -153t182.5 -439q0 -288 -182 -441.5t-524 -153.5q-344 0 -527.5 153t-183.5 442zM455 575q0 -122 72 -180.5t223 -58.5q148 0 220 59t72 180q0 238 -292 238q-295 0 -295 -238z" />
    <glyph glyph-name="Obreve" unicode="&#x14e;" horiz-adv-x="1662" 
d="M831 1620q83 0 123.5 38.5t36.5 113.5h234q0 -400 -394 -400q-393 0 -393 400h234q-6 -75 34 -113.5t125 -38.5zM47 668q0 325 207.5 504.5t581.5 179.5q373 0 576.5 -178.5t203.5 -505.5q0 -331 -202.5 -509.5t-577.5 -178.5q-379 0 -584 179t-205 509zM487 668
q0 -160 88 -241t259 -81q168 0 255 81t87 241q0 155 -88 236t-254 81q-169 0 -258 -80.5t-89 -236.5z" />
    <glyph glyph-name="obreve" unicode="&#x14f;" horiz-adv-x="1499" 
d="M750 1436q83 0 123 38t36 113h234q0 -201 -97.5 -300t-295.5 -99q-394 0 -394 399h234q-6 -75 34.5 -113t125.5 -38zM41 575q0 286 183.5 439t527.5 153q341 0 523.5 -153t182.5 -439q0 -288 -182 -441.5t-524 -153.5q-344 0 -527.5 153t-183.5 442zM455 575
q0 -122 72 -180.5t223 -58.5q148 0 220 59t72 180q0 238 -292 238q-295 0 -295 -238z" />
    <glyph glyph-name="Ohungarumlaut" unicode="&#x150;" horiz-adv-x="1662" 
d="M651 1395h-262l176 372h293zM1067 1395h-262l176 372h293zM47 668q0 325 207.5 504.5t581.5 179.5q373 0 576.5 -178.5t203.5 -505.5q0 -331 -202.5 -509.5t-577.5 -178.5q-379 0 -584 179t-205 509zM487 668q0 -160 88 -241t259 -81q168 0 255 81t87 241q0 155 -88 236
t-254 81q-169 0 -258 -80.5t-89 -236.5z" />
    <glyph glyph-name="ohungarumlaut" unicode="&#x151;" horiz-adv-x="1499" 
d="M569 1210h-262l176 373h293zM985 1210h-262l176 373h293zM41 575q0 286 183.5 439t527.5 153q341 0 523.5 -153t182.5 -439q0 -288 -182 -441.5t-524 -153.5q-344 0 -527.5 153t-183.5 442zM455 575q0 -122 72 -180.5t223 -58.5q148 0 220 59t72 180q0 238 -292 238
q-295 0 -295 -238z" />
    <glyph glyph-name="OE" unicode="&#x152;" horiz-adv-x="2211" 
d="M47 668q0 327 210 502.5t607 175.5q76 0 209 -15h1077v-348h-647v-154h586v-307h-586v-174h647v-348h-1077q-88 -10 -209 -10q-397 0 -607 175.5t-210 502.5zM1073 362v611q-86 12 -219 12q-180 0 -273.5 -80.5t-93.5 -236.5q0 -157 93.5 -237.5t273.5 -80.5
q134 0 219 12z" />
    <glyph glyph-name="oe" unicode="&#x153;" horiz-adv-x="2424" 
d="M41 575q0 286 183.5 439t527.5 153q317 0 497 -133q177 133 486 133q297 0 461 -123t184 -360q9 -94 -4 -211h-906q47 -176 281 -176q176 0 231 102h394q-40 -207 -202 -313t-437 -106q-311 0 -488 133q-180 -133 -497 -133q-344 0 -527.5 153t-183.5 442zM1475 690h524
q-10 76 -77.5 118t-180.5 42q-212 0 -266 -160zM455 575q0 -122 72 -180.5t223 -58.5q148 0 220 59t72 180q0 238 -292 238q-295 0 -295 -238z" />
    <glyph glyph-name="Racute" unicode="&#x154;" horiz-adv-x="1529" 
d="M764 1395h-348l321 381h379zM866 1331q299 0 456 -120.5t157 -350.5q0 -292 -265 -385l256 -475h-436l-215 428h-297v-428h-430v1331h774zM522 733h301q114 0 164.5 30t50.5 97q0 66 -51 95.5t-164 29.5h-301v-252z" />
    <glyph glyph-name="racute" unicode="&#x155;" horiz-adv-x="993" 
d="M496 1210h-349l322 381h379zM82 0v1147h338l69 -172q74 93 175 142.5t219 49.5q66 0 90 -6v-387q-46 8 -129 8q-169 0 -260.5 -80t-91.5 -229v-473h-410z" />
    <glyph glyph-name="uni0156" unicode="&#x156;" horiz-adv-x="1529" 
d="M866 1331q299 0 456 -120.5t157 -350.5q0 -292 -265 -385l256 -475h-436l-215 428h-297v-428h-430v1331h774zM522 733h301q114 0 164.5 30t50.5 97q0 66 -51 95.5t-164 29.5h-301v-252zM848 -455h-236v373h308z" />
    <glyph glyph-name="uni0157" unicode="&#x157;" horiz-adv-x="993" 
d="M82 0v1147h338l69 -172q74 93 175 142.5t219 49.5q66 0 90 -6v-387q-46 8 -129 8q-169 0 -260.5 -80t-91.5 -229v-473h-410zM373 -455h-236v373h307z" />
    <glyph glyph-name="Rcaron" unicode="&#x158;" horiz-adv-x="1529" 
d="M600 1743l166 -178l166 178h313l-346 -369h-266l-346 369h313zM866 1331q299 0 456 -120.5t157 -350.5q0 -292 -265 -385l256 -475h-436l-215 428h-297v-428h-430v1331h774zM522 733h301q114 0 164.5 30t50.5 97q0 66 -51 95.5t-164 29.5h-301v-252z" />
    <glyph glyph-name="rcaron" unicode="&#x159;" horiz-adv-x="993" 
d="M330 1559l166 -179l166 179h313l-346 -369h-267l-346 369h314zM82 0v1147h338l69 -172q74 93 175 142.5t219 49.5q66 0 90 -6v-387q-46 8 -129 8q-169 0 -260.5 -80t-91.5 -229v-473h-410z" />
    <glyph glyph-name="Sacute" unicode="&#x15a;" horiz-adv-x="1421" 
d="M709 1395h-349l322 381h379zM1374 412q0 -222 -162 -327t-483 -105q-352 0 -521.5 120.5t-158.5 348.5h408q6 -77 70.5 -110t217.5 -32q116 2 163.5 23t47.5 73q0 19 -8.5 33t-28.5 24.5t-40 17.5t-56 12.5t-62.5 8.5t-72.5 7q-212 18 -302 40q-246 58 -308 228
q-23 63 -23 141q0 215 163 326t480 111q320 0 484.5 -110.5t177.5 -334.5h-410q-12 117 -239 117q-217 0 -217 -98q0 -18 8.5 -32t28.5 -24t40 -17t56 -12.5t62.5 -8.5t72.5 -7q213 -21 310 -48q243 -69 290 -259q12 -49 12 -106z" />
    <glyph glyph-name="sacute" unicode="&#x15b;" horiz-adv-x="1320" 
d="M659 1210h-348l322 381h379zM1280 365q0 -189 -158.5 -287t-455.5 -98q-314 0 -473 106t-150 301h360q0 -113 277 -113q197 0 197 62q0 12 -4.5 22t-15.5 18t-21.5 14t-31 10.5t-35.5 7.5t-43 6.5t-46 5t-51 4.5q-205 17 -295 40q-233 60 -275 238q-10 42 -10 91
q0 182 158.5 278t460.5 96q293 0 439.5 -96t158.5 -299h-359q-12 52 -66.5 76t-158.5 24q-106 0 -164.5 -22t-58.5 -59q0 -42 56.5 -60t168.5 -29q14 -1 43 -4q71 -6 108.5 -10t105 -15.5t106.5 -25t89.5 -39t77.5 -57.5t46.5 -79.5t19.5 -106.5z" />
    <glyph glyph-name="Scircumflex" unicode="&#x15c;" horiz-adv-x="1421" 
d="M545 1374h-314l347 369h266l346 -369h-313l-166 178zM1374 412q0 -222 -162 -327t-483 -105q-352 0 -521.5 120.5t-158.5 348.5h408q6 -77 70.5 -110t217.5 -32q116 2 163.5 23t47.5 73q0 19 -8.5 33t-28.5 24.5t-40 17.5t-56 12.5t-62.5 8.5t-72.5 7q-212 18 -302 40
q-246 58 -308 228q-23 63 -23 141q0 215 163 326t480 111q320 0 484.5 -110.5t177.5 -334.5h-410q-12 117 -239 117q-217 0 -217 -98q0 -18 8.5 -32t28.5 -24t40 -17t56 -12.5t62.5 -8.5t72.5 -7q213 -21 310 -48q243 -69 290 -259q12 -49 12 -106z" />
    <glyph glyph-name="scircumflex" unicode="&#x15d;" horiz-adv-x="1320" 
d="M496 1190h-314l346 369h267l346 -369h-314l-165 178zM1280 365q0 -189 -158.5 -287t-455.5 -98q-314 0 -473 106t-150 301h360q0 -113 277 -113q197 0 197 62q0 12 -4.5 22t-15.5 18t-21.5 14t-31 10.5t-35.5 7.5t-43 6.5t-46 5t-51 4.5q-205 17 -295 40
q-233 60 -275 238q-10 42 -10 91q0 182 158.5 278t460.5 96q293 0 439.5 -96t158.5 -299h-359q-12 52 -66.5 76t-158.5 24q-106 0 -164.5 -22t-58.5 -59q0 -42 56.5 -60t168.5 -29q14 -1 43 -4q71 -6 108.5 -10t105 -15.5t106.5 -25t89.5 -39t77.5 -57.5t46.5 -79.5
t19.5 -106.5z" />
    <glyph glyph-name="Scedilla" unicode="&#x15e;" horiz-adv-x="1421" 
d="M1374 412q0 -191 -120 -295t-357 -129q61 -81 61 -187q0 -148 -133.5 -223t-359.5 -55v256q97 -9 149 22.5t52 100.5q0 40 -29 80q-306 15 -452.5 134.5t-135.5 332.5h408q6 -77 70.5 -110t217.5 -32q116 2 163.5 23t47.5 73q0 19 -8.5 33t-28.5 24.5t-40 17.5t-56 12.5
t-62.5 8.5t-72.5 7q-212 18 -302 40q-246 58 -308 228q-23 63 -23 141q0 215 163 326t480 111q320 0 484.5 -110.5t177.5 -334.5h-410q-12 117 -239 117q-217 0 -217 -98q0 -18 8.5 -32t28.5 -24t40 -17t56 -12.5t62.5 -8.5t72.5 -7q213 -21 310 -48q243 -69 290 -259
q12 -49 12 -106z" />
    <glyph glyph-name="scedilla" unicode="&#x15f;" horiz-adv-x="1320" 
d="M1280 365q0 -159 -112 -254t-324 -121q28 -37 45.5 -88.5t17.5 -100.5q0 -148 -133.5 -223t-359.5 -55v256q97 -9 148.5 22.5t51.5 100.5q0 44 -26 80q-275 13 -414.5 118t-130.5 287h360q0 -113 277 -113q197 0 197 62q0 12 -4.5 22t-15.5 18t-21.5 14t-31 10.5
t-35.5 7.5t-43 6.5t-46 5t-51 4.5q-205 17 -295 40q-233 60 -275 238q-10 42 -10 91q0 182 158.5 278t460.5 96q293 0 439.5 -96t158.5 -299h-359q-12 52 -66.5 76t-158.5 24q-106 0 -164.5 -22t-58.5 -59q0 -42 56.5 -60t168.5 -29q14 -1 43 -4q71 -6 108.5 -10t105 -15.5
t106.5 -25t89.5 -39t77.5 -57.5t46.5 -79.5t19.5 -106.5z" />
    <glyph glyph-name="Scaron" unicode="&#x160;" horiz-adv-x="1421" 
d="M545 1743l166 -178l166 178h313l-346 -369h-266l-347 369h314zM1374 412q0 -222 -162 -327t-483 -105q-352 0 -521.5 120.5t-158.5 348.5h408q6 -77 70.5 -110t217.5 -32q116 2 163.5 23t47.5 73q0 19 -8.5 33t-28.5 24.5t-40 17.5t-56 12.5t-62.5 8.5t-72.5 7
q-212 18 -302 40q-246 58 -308 228q-23 63 -23 141q0 215 163 326t480 111q320 0 484.5 -110.5t177.5 -334.5h-410q-12 117 -239 117q-217 0 -217 -98q0 -18 8.5 -32t28.5 -24t40 -17t56 -12.5t62.5 -8.5t72.5 -7q213 -21 310 -48q243 -69 290 -259q12 -49 12 -106z" />
    <glyph glyph-name="scaron" unicode="&#x161;" horiz-adv-x="1320" 
d="M496 1559l166 -179l165 179h314l-346 -369h-267l-346 369h314zM1280 365q0 -189 -158.5 -287t-455.5 -98q-314 0 -473 106t-150 301h360q0 -113 277 -113q197 0 197 62q0 12 -4.5 22t-15.5 18t-21.5 14t-31 10.5t-35.5 7.5t-43 6.5t-46 5t-51 4.5q-205 17 -295 40
q-233 60 -275 238q-10 42 -10 91q0 182 158.5 278t460.5 96q293 0 439.5 -96t158.5 -299h-359q-12 52 -66.5 76t-158.5 24q-106 0 -164.5 -22t-58.5 -59q0 -42 56.5 -60t168.5 -29q14 -1 43 -4q71 -6 108.5 -10t105 -15.5t106.5 -25t89.5 -39t77.5 -57.5t46.5 -79.5
t19.5 -106.5z" />
    <glyph glyph-name="Tcaron" unicode="&#x164;" horiz-adv-x="1452" 
d="M561 1743l166 -178l166 178h313l-346 -369h-266l-346 369h313zM512 0v983h-492v348h1412v-348h-490v-983h-430z" />
    <glyph glyph-name="tcaron" unicode="&#x165;" horiz-adv-x="1077" 
d="M764 1335v531h307l-102 -531h-205zM639 483q0 -73 29.5 -105t91.5 -32q182 0 256 8v-360q-23 -4 -156 -9t-190 -5q-441 0 -441 391v489h-229v287h229v225l410 82v-307h369v-287h-369v-377z" />
    <glyph glyph-name="Tbar" unicode="&#x166;" horiz-adv-x="1452" 
d="M512 0v477h-309v266h309v240h-492v348h1412v-348h-490v-240h307v-266h-307v-477h-430z" />
    <glyph glyph-name="tbar" unicode="&#x167;" horiz-adv-x="1036" 
d="M0 860v287h229v225l410 82v-307h369v-287h-369v-96h369v-287h-369q0 -131 121 -131q182 0 256 8v-360q-23 -4 -156 -9t-190 -5q-441 0 -441 391v106h-229v287h229v96h-229z" />
    <glyph glyph-name="Utilde" unicode="&#x168;" horiz-adv-x="1562" 
d="M791 1704q72 -35 127 -35q61 0 61 49h215q0 -132 -74.5 -207t-187.5 -75q-83 0 -160 39q-69 34 -127 34q-61 0 -61 -49h-215q0 132 74.5 207.5t187.5 75.5q83 0 160 -39zM782 307q149 0 209 68.5t60 224.5v731h430v-786q0 -271 -177.5 -418t-521.5 -147t-522 146
t-178 419v786h430v-731q0 -156 60 -224.5t210 -68.5z" />
    <glyph glyph-name="utilde" unicode="&#x169;" 
d="M754 1520q72 -35 127 -35q61 0 61 49h215q0 -132 -74.5 -207.5t-187.5 -75.5q-83 0 -160 39q-72 35 -127 35q-61 0 -61 -49h-215q0 132 74.5 207.5t187.5 75.5q83 0 160 -39zM1405 1147v-1147h-336l-53 154q-90 -87 -198 -130.5t-259 -43.5q-214 0 -350.5 125.5
t-136.5 316.5v725h409v-621q0 -104 53 -150t173 -46q82 0 158 39t130 108v670h410z" />
    <glyph glyph-name="Umacron" unicode="&#x16a;" horiz-adv-x="1562" 
d="M465 1475v266h635v-266h-635zM782 307q149 0 209 68.5t60 224.5v731h430v-786q0 -271 -177.5 -418t-521.5 -147t-522 146t-178 419v786h430v-731q0 -156 60 -224.5t210 -68.5z" />
    <glyph glyph-name="umacron" unicode="&#x16b;" 
d="M426 1290v266h635v-266h-635zM1405 1147v-1147h-336l-53 154q-90 -87 -198 -130.5t-259 -43.5q-214 0 -350.5 125.5t-136.5 316.5v725h409v-621q0 -104 53 -150t173 -46q82 0 158 39t130 108v670h410z" />
    <glyph glyph-name="Ubreve" unicode="&#x16c;" horiz-adv-x="1562" 
d="M782 1620q83 0 123.5 38.5t36.5 113.5h234q0 -400 -394 -400q-393 0 -393 400h234q-6 -75 34 -113.5t125 -38.5zM782 307q149 0 209 68.5t60 224.5v731h430v-786q0 -271 -177.5 -418t-521.5 -147t-522 146t-178 419v786h430v-731q0 -156 60 -224.5t210 -68.5z" />
    <glyph glyph-name="ubreve" unicode="&#x16d;" 
d="M743 1436q83 0 123.5 38t36.5 113h234q0 -399 -394 -399q-198 0 -295.5 99t-97.5 300h234q-6 -75 34 -113t125 -38zM1405 1147v-1147h-336l-53 154q-90 -87 -198 -130.5t-259 -43.5q-214 0 -350.5 125.5t-136.5 316.5v725h409v-621q0 -104 53 -150t173 -46q82 0 158 39
t130 108v670h410z" />
    <glyph glyph-name="Uring" unicode="&#x16e;" horiz-adv-x="1562" 
d="M461 1647q0 125 90 201.5t231 76.5q140 0 231 -77t91 -201q0 -123 -91.5 -201t-230.5 -78q-140 0 -230.5 77.5t-90.5 201.5zM668 1647q0 -38 31 -61t83 -23t83.5 23t31.5 61t-31.5 61t-83.5 23t-83 -23t-31 -61zM782 307q149 0 209 68.5t60 224.5v731h430v-786
q0 -271 -177.5 -418t-521.5 -147t-522 146t-178 419v786h430v-731q0 -156 60 -224.5t210 -68.5z" />
    <glyph glyph-name="uring" unicode="&#x16f;" 
d="M422 1462q0 125 90 202t231 77q140 0 231 -77.5t91 -201.5q0 -123 -91.5 -200.5t-230.5 -77.5q-141 0 -231 77t-90 201zM629 1462q0 -38 31 -61t83 -23t83.5 23t31.5 61t-31.5 61t-83.5 23t-83 -23t-31 -61zM1405 1147v-1147h-336l-53 154q-90 -87 -198 -130.5
t-259 -43.5q-214 0 -350.5 125.5t-136.5 316.5v725h409v-621q0 -104 53 -150t173 -46q82 0 158 39t130 108v670h410z" />
    <glyph glyph-name="Uhungarumlaut" unicode="&#x170;" horiz-adv-x="1562" 
d="M602 1395h-262l176 372h293zM1018 1395h-262l176 372h293zM782 307q149 0 209 68.5t60 224.5v731h430v-786q0 -271 -177.5 -418t-521.5 -147t-522 146t-178 419v786h430v-731q0 -156 60 -224.5t210 -68.5z" />
    <glyph glyph-name="uhungarumlaut" unicode="&#x171;" 
d="M563 1210h-262l176 373h293zM979 1210h-262l176 373h293zM1405 1147v-1147h-336l-53 154q-90 -87 -198 -130.5t-259 -43.5q-214 0 -350.5 125.5t-136.5 316.5v725h409v-621q0 -104 53 -150t173 -46q82 0 158 39t130 108v670h410z" />
    <glyph glyph-name="Uogonek" unicode="&#x172;" horiz-adv-x="1562" 
d="M782 307q149 0 209 68.5t60 224.5v731h430v-786q0 -256 -159 -402t-468 -161q-27 -38 -27 -80q0 -69 52 -100.5t149 -22.5v-256q-226 -20 -359.5 55t-133.5 223q0 51 17 102.5t46 88.5q-255 37 -385.5 178.5t-130.5 374.5v786h430v-731q0 -156 60 -224.5t210 -68.5z" />
    <glyph glyph-name="uogonek" unicode="&#x173;" 
d="M1405 1147v-1147h-39q-43 -49 -43 -98q0 -69 52 -100.5t149 -22.5v-256q-226 -20 -360 55t-134 223q0 52 19.5 107t50.5 92h-31l-53 154q-90 -87 -198 -130.5t-259 -43.5q-214 0 -350.5 125.5t-136.5 316.5v725h409v-621q0 -104 53 -150t173 -46q82 0 158 39t130 108v670
h410z" />
    <glyph glyph-name="Wcircumflex" unicode="&#x174;" horiz-adv-x="2234" 
d="M952 1374h-313l346 369h266l346 -369h-313l-166 178zM0 1331h453l233 -837l242 837h379l241 -837l234 837h452l-413 -1331h-484l-221 768l-221 -768h-481z" />
    <glyph glyph-name="wcircumflex" unicode="&#x175;" horiz-adv-x="2115" 
d="M893 1190h-313l346 369h266l346 -369h-313l-166 178zM438 0l-438 1147h449l204 -672l224 672h362l223 -672l205 672h449l-439 -1147h-407l-211 631l-213 -631h-408z" />
    <glyph glyph-name="Ycircumflex" unicode="&#x176;" horiz-adv-x="1595" 
d="M633 1374h-314l347 369h266l346 -369h-313l-166 178zM0 1331h483l316 -510l313 510h483l-581 -872v-459h-430v457z" />
    <glyph glyph-name="ycircumflex" unicode="&#x177;" horiz-adv-x="1447" 
d="M559 1190h-313l346 369h266l346 -369h-313l-166 178zM115 -367v328h350q43 0 67 16l-532 1170h449l272 -739l289 739h438l-547 -1253q-59 -135 -138.5 -198t-203.5 -63h-444z" />
    <glyph glyph-name="Ydieresis" unicode="&#x178;" horiz-adv-x="1595" 
d="M444 1608q0 66 43.5 108.5t110.5 42.5q69 0 112.5 -42.5t43.5 -108.5t-43.5 -109t-112.5 -43q-67 0 -110.5 43t-43.5 109zM844 1608q0 66 43 108.5t110 42.5q69 0 112.5 -42.5t43.5 -108.5t-43.5 -109t-112.5 -43q-67 0 -110 43t-43 109zM0 1331h483l316 -510l313 510
h483l-581 -872v-459h-430v457z" />
    <glyph glyph-name="Zacute" unicode="&#x179;" horiz-adv-x="1290" 
d="M643 1395h-348l321 381h379zM41 348l647 635h-647v348h1208v-348l-645 -635h645v-348h-1208v348z" />
    <glyph glyph-name="zacute" unicode="&#x17a;" horiz-adv-x="1234" 
d="M616 1210h-348l322 381h379zM41 860v287h1153v-287l-643 -573h643v-287h-1153v287l645 573h-645z" />
    <glyph glyph-name="Zdotaccent" unicode="&#x17b;" horiz-adv-x="1290" 
d="M473 1595q0 80 45.5 126t124.5 46q81 0 128.5 -47t47.5 -125t-47.5 -125t-128.5 -47q-79 0 -124.5 46t-45.5 126zM41 348l647 635h-647v348h1208v-348l-645 -635h645v-348h-1208v348z" />
    <glyph glyph-name="zdotaccent" unicode="&#x17c;" horiz-adv-x="1234" 
d="M444 1411q0 80 45.5 126t124.5 46q81 0 129 -47t48 -125t-48 -125t-129 -47q-79 0 -124.5 46t-45.5 126zM41 860v287h1153v-287l-643 -573h643v-287h-1153v287l645 573h-645z" />
    <glyph glyph-name="Zcaron" unicode="&#x17d;" horiz-adv-x="1290" 
d="M479 1743l166 -178l166 178h313l-346 -369h-266l-346 369h313zM41 348l647 635h-647v348h1208v-348l-645 -635h645v-348h-1208v348z" />
    <glyph glyph-name="zcaron" unicode="&#x17e;" horiz-adv-x="1234" 
d="M453 1559l165 -179l166 179h314l-346 -369h-267l-346 369h314zM41 860v287h1153v-287l-643 -573h643v-287h-1153v287l645 573h-645z" />
    <glyph glyph-name="longs" unicode="&#x17f;" horiz-adv-x="948" 
d="M492 0h-410v1214q0 171 110 277t328 106q352 0 428 -6v-334q-89 7 -330 7q-65 0 -95.5 -28.5t-30.5 -88.5v-1147z" />
    <glyph glyph-name="florin" unicode="&#x192;" horiz-adv-x="1402" 
d="M197 860l45 287h225l10 67q28 171 174.5 277t401.5 106q273 0 350 -6l-53 -334q-86 7 -275 7q-178 0 -198 -111v-6h454l-45 -287h-455l-137 -860q-28 -171 -163 -277t-369 -106q-96 0 -162 2l51 332h66q160 0 178 117l127 792h-225z" />
    <glyph glyph-name="uni0218" unicode="&#x218;" horiz-adv-x="1421" 
d="M1374 412q0 -222 -162 -327t-483 -105q-352 0 -521.5 120.5t-158.5 348.5h408q6 -77 70.5 -110t217.5 -32q116 2 163.5 23t47.5 73q0 19 -8.5 33t-28.5 24.5t-40 17.5t-56 12.5t-62.5 8.5t-72.5 7q-212 18 -302 40q-246 58 -308 228q-23 63 -23 141q0 215 163 326
t480 111q320 0 484.5 -110.5t177.5 -334.5h-410q-12 117 -239 117q-217 0 -217 -98q0 -18 8.5 -32t28.5 -24t40 -17t56 -12.5t62.5 -8.5t72.5 -7q213 -21 310 -48q243 -69 290 -259q12 -49 12 -106zM793 -455h-236v373h307z" />
    <glyph glyph-name="uni0219" unicode="&#x219;" horiz-adv-x="1320" 
d="M1280 365q0 -189 -158.5 -287t-455.5 -98q-314 0 -473 106t-150 301h360q0 -113 277 -113q197 0 197 62q0 12 -4.5 22t-15.5 18t-21.5 14t-31 10.5t-35.5 7.5t-43 6.5t-46 5t-51 4.5q-205 17 -295 40q-233 60 -275 238q-10 42 -10 91q0 182 158.5 278t460.5 96
q293 0 439.5 -96t158.5 -299h-359q-12 52 -66.5 76t-158.5 24q-106 0 -164.5 -22t-58.5 -59q0 -42 56.5 -60t168.5 -29q14 -1 43 -4q71 -6 108.5 -10t105 -15.5t106.5 -25t89.5 -39t77.5 -57.5t46.5 -79.5t19.5 -106.5zM743 -455h-235v373h307z" />
    <glyph glyph-name="uni0237" unicode="&#x237;" horiz-adv-x="827" 
d="M324 180v967h409v-1143q0 -152 -126.5 -251t-321.5 -99q-197 0 -267 4v334q40 -4 91 -4q116 0 165.5 44t49.5 148z" />
    <glyph glyph-name="circumflex" unicode="&#x2c6;" horiz-adv-x="999" 
d="M334 1190h-314l347 369h266l346 -369h-313l-166 178z" />
    <glyph glyph-name="caron" unicode="&#x2c7;" horiz-adv-x="999" 
d="M334 1559l166 -179l166 179h313l-346 -369h-266l-347 369h314z" />
    <glyph glyph-name="breve" unicode="&#x2d8;" horiz-adv-x="827" 
d="M414 1436q83 0 123 38t36 113h234q0 -201 -97.5 -300t-295.5 -99q-394 0 -394 399h234q-6 -75 34.5 -113t125.5 -38z" />
    <glyph glyph-name="dotaccent" unicode="&#x2d9;" horiz-adv-x="387" 
d="M20 1411q0 80 45.5 126t124.5 46q81 0 129 -47t48 -125t-48 -125t-129 -47q-79 0 -124.5 46t-45.5 126z" />
    <glyph glyph-name="ring" unicode="&#x2da;" horiz-adv-x="684" 
d="M20 1462q0 125 90.5 202t231.5 77q140 0 231 -77.5t91 -201.5q0 -123 -91.5 -200.5t-230.5 -77.5q-141 0 -231.5 77t-90.5 201zM227 1462q0 -38 31.5 -61t83.5 -23t83.5 23t31.5 61t-31.5 61t-83.5 23t-83.5 -23t-31.5 -61z" />
    <glyph glyph-name="ogonek" unicode="&#x2db;" horiz-adv-x="534" 
d="M313 -98q0 -69 52 -100.5t149 -22.5v-256q-226 -20 -360 55t-134 223q0 58 23.5 118t60.5 95h267q-58 -52 -58 -112z" />
    <glyph glyph-name="tilde" unicode="&#x2dc;" horiz-adv-x="866" 
d="M442 1520q72 -35 127 -35q62 0 62 49h215q0 -132 -74.5 -207.5t-187.5 -75.5q-83 0 -160 39q-72 35 -127 35q-61 0 -61 -49h-216q0 132 75 207.5t188 75.5q82 0 159 -39z" />
    <glyph glyph-name="hungarumlaut" unicode="&#x2dd;" horiz-adv-x="925" 
d="M283 1210h-263l177 373h292zM698 1210h-262l176 373h293z" />
    <glyph glyph-name="uni0326" unicode="&#x326;" horiz-adv-x="348" 
d="M256 -455h-236v373h308z" />
    <glyph glyph-name="uni0394" unicode="&#x394;" horiz-adv-x="1718" 
d="M82 348l506 983h542l506 -983v-348h-1554v348zM535 348h649l-324 703z" />
    <glyph glyph-name="uni03A9" unicode="&#x3a9;" horiz-adv-x="1761" 
d="M82 0v348h235q-194 165 -194 445q0 269 193.5 414t564.5 145t564 -145t193 -414q0 -280 -194 -445h235v-348h-710v356q92 26 160.5 122.5t68.5 221.5q0 147 -77 216t-240 69t-240.5 -69t-77.5 -216q0 -125 68.5 -221.5t161.5 -122.5v-356h-711z" />
    <glyph glyph-name="uni03BC" unicode="&#x3bc;" horiz-adv-x="1538" 
d="M1436 1147v-1147h-336l-53 154q-90 -87 -198 -130.5t-259 -43.5q-53 0 -78 4v-293h-410v1456h410v-621q0 -104 52.5 -150t172.5 -46q82 0 158.5 39t130.5 108v670h410z" />
    <glyph glyph-name="pi" unicode="&#x3c0;" horiz-adv-x="1626" 
d="M287 0v819h-205v328h1462v-328h-205v-383q0 -60 26 -84t89 -24h64v-328h-328q-95 0 -157 72.5t-62 183.5v563h-316v-819h-368z" />
    <glyph glyph-name="Wgrave" unicode="&#x1e80;" horiz-adv-x="2234" 
d="M1120 1395l-352 381h379l321 -381h-348zM0 1331h453l233 -837l242 837h379l241 -837l234 837h452l-413 -1331h-484l-221 768l-221 -768h-481z" />
    <glyph glyph-name="wgrave" unicode="&#x1e81;" horiz-adv-x="2115" 
d="M1061 1210l-352 381h378l322 -381h-348zM438 0l-438 1147h449l204 -672l224 672h362l223 -672l205 672h449l-439 -1147h-407l-211 631l-213 -631h-408z" />
    <glyph glyph-name="Wacute" unicode="&#x1e82;" horiz-adv-x="2234" 
d="M1116 1395h-348l322 381h378zM0 1331h453l233 -837l242 837h379l241 -837l234 837h452l-413 -1331h-484l-221 768l-221 -768h-481z" />
    <glyph glyph-name="wacute" unicode="&#x1e83;" horiz-adv-x="2115" 
d="M1057 1210h-348l321 381h379zM438 0l-438 1147h449l204 -672l224 672h362l223 -672l205 672h449l-439 -1147h-407l-211 631l-213 -631h-408z" />
    <glyph glyph-name="Wdieresis" unicode="&#x1e84;" horiz-adv-x="2234" 
d="M764 1608q0 66 43.5 108.5t110.5 42.5q69 0 112 -42.5t43 -108.5t-43 -109t-112 -43q-67 0 -110.5 43t-43.5 109zM1163 1608q0 66 43.5 108.5t110.5 42.5q69 0 112.5 -42.5t43.5 -108.5t-43.5 -109t-112.5 -43q-67 0 -110.5 43t-43.5 109zM0 1331h453l233 -837l242 837
h379l241 -837l234 837h452l-413 -1331h-484l-221 768l-221 -768h-481z" />
    <glyph glyph-name="wdieresis" unicode="&#x1e85;" horiz-adv-x="2115" 
d="M705 1423q0 66 43 109t110 43q69 0 112.5 -43t43.5 -109t-43.5 -108.5t-112.5 -42.5q-67 0 -110 42.5t-43 108.5zM1104 1423q0 66 43 109t110 43q69 0 112.5 -43t43.5 -109t-43.5 -108.5t-112.5 -42.5q-67 0 -110 42.5t-43 108.5zM438 0l-438 1147h449l204 -672l224 672
h362l223 -672l205 672h449l-439 -1147h-407l-211 631l-213 -631h-408z" />
    <glyph glyph-name="endash" unicode="&#x2013;" horiz-adv-x="1359" 
d="M82 477v266h1196v-266h-1196z" />
    <glyph glyph-name="emdash" unicode="&#x2014;" horiz-adv-x="2519" 
d="M82 477v266h2355v-266h-2355z" />
    <glyph glyph-name="quoteleft" unicode="&#x2018;" horiz-adv-x="399" 
d="M338 1434v-531h-307l102 531h205z" />
    <glyph glyph-name="quoteright" unicode="&#x2019;" horiz-adv-x="399" 
d="M61 903v531h308l-103 -531h-205z" />
    <glyph glyph-name="quotesinglbase" unicode="&#x201a;" horiz-adv-x="471" 
d="M82 -231v530h307l-102 -530h-205z" />
    <glyph glyph-name="quotedblleft" unicode="&#x201c;" horiz-adv-x="749" 
d="M688 1434v-531h-307l102 531h205zM338 1434v-531h-307l102 531h205z" />
    <glyph glyph-name="quotedblright" unicode="&#x201d;" horiz-adv-x="749" 
d="M61 903v531h308l-103 -531h-205zM412 903v531h307l-103 -531h-204z" />
    <glyph glyph-name="quotedblbase" unicode="&#x201e;" horiz-adv-x="821" 
d="M82 -231v530h307l-102 -530h-205zM432 -231v530h307l-102 -530h-205z" />
    <glyph glyph-name="dagger" unicode="&#x2020;" horiz-adv-x="849" 
d="M242 -332v977h-160v266h160v502h368v-502h158v-266h-158v-977h-368z" />
    <glyph glyph-name="daggerdbl" unicode="&#x2021;" horiz-adv-x="849" 
d="M242 -332v494h-160v266h160v223h-160v267h160v495h368v-495h158v-267h-158v-223h158v-266h-158v-494h-368z" />
    <glyph glyph-name="bullet" unicode="&#x2022;" horiz-adv-x="823" 
d="M123 713q0 132 78.5 210t210.5 78t210 -78t78 -210t-78 -210.5t-210 -78.5t-210.5 78.5t-78.5 210.5z" />
    <glyph glyph-name="ellipsis" unicode="&#x2026;" horiz-adv-x="1597" 
d="M82 160q0 79 51 130.5t129 51.5q84 0 136.5 -51t52.5 -131q0 -79 -52.5 -129.5t-136.5 -50.5q-78 0 -129 51t-51 129zM614 160q0 79 51.5 130.5t129.5 51.5q84 0 136 -51t52 -131q0 -79 -52 -129.5t-136 -50.5q-78 0 -129.5 51t-51.5 129zM1147 160q0 79 51 130.5
t129 51.5q84 0 136.5 -51t52.5 -131q0 -79 -52.5 -129.5t-136.5 -50.5q-78 0 -129 51t-51 129z" />
    <glyph glyph-name="perthousand" unicode="&#x2030;" horiz-adv-x="3411" 
d="M82 981q0 116 66 201.5t173.5 127.5t239.5 42t239 -42t172.5 -127.5t65.5 -201.5t-65.5 -201t-172.5 -126.5t-239 -41.5t-239.5 41.5t-173.5 126.5t-66 201zM907 0h-350l909 1331h351zM410 981q0 -133 151 -133q150 0 150 133q0 135 -150 135q-151 0 -151 -135zM1335 348
q0 116 66.5 201.5t174 127.5t239.5 42t239 -42t172.5 -127.5t65.5 -201.5t-65.5 -201t-172.5 -126t-239 -41q-133 0 -240 41t-173.5 126t-66.5 201zM2374 348q0 116 66 201.5t173.5 127.5t239.5 42t239 -42t172.5 -127.5t65.5 -201.5t-65.5 -201t-172.5 -126t-239 -41
q-133 0 -240 41t-173 126t-66 201zM1663 348q0 -61 36.5 -97t115.5 -36q149 0 149 133q0 135 -149 135q-152 0 -152 -135zM2701 348q0 -61 36.5 -97t115.5 -36q149 0 149 133q0 135 -149 135q-152 0 -152 -135z" />
    <glyph glyph-name="guilsinglleft" unicode="&#x2039;" horiz-adv-x="839" 
d="M82 641l342 328h334l-385 -408l385 -405h-334l-342 327v158z" />
    <glyph glyph-name="guilsinglright" unicode="&#x203a;" horiz-adv-x="839" 
d="M758 641v-158l-342 -327h-334l385 407l-385 406h334z" />
    <glyph glyph-name="fraction" unicode="&#x2044;" horiz-adv-x="899" 
d="M391 -41h-391l508 1413h391z" />
    <glyph glyph-name="franc" unicode="&#x20a3;" horiz-adv-x="1464" 
d="M229 0v145h-147v226h147v960h1153v-348h-723v-197h639v-266h-639v-149h269v-226h-269v-145h-430z" />
    <glyph glyph-name="lira" unicode="&#x20a4;" horiz-adv-x="1458" 
d="M1360 348v-348h-1278v348q131 0 175 11q63 16 77 63h-252v174h229q-7 24 -28 86h-201v174h154q-9 70 -9 98q0 182 162.5 290t435.5 108q507 0 551 -422h-399q-9 46 -46 71t-95 25q-75 0 -119.5 -37.5t-44.5 -111.5l2 -13v-8h602v-174h-557q26 -76 29 -86h528v-174h-504
q-8 -37 -37 -74h625z" />
    <glyph glyph-name="Euro" unicode="&#x20ac;" horiz-adv-x="1769" 
d="M197 668v34h-156v195h186q65 219 256.5 337t485.5 118q325 0 509.5 -144.5t204.5 -412.5h-434q-38 190 -282 190q-167 0 -252 -88h403v-195h-479v-8l-2 -18v-8q0 -38 2 -56h479v-194h-387q84 -72 240 -72q135 0 205 56.5t81 172.5h431q-9 -288 -194.5 -441.5
t-524.5 -153.5q-294 0 -482 112.5t-256 325.5h-190v194h158v15l-2 26v15z" />
    <glyph glyph-name="trademark" unicode="&#x2122;" horiz-adv-x="2052" 
d="M330 532v578h-289v221h852v-221h-287v-578h-276zM1380 698l-155 287v-453h-275v799h328l182 -332l180 332h328v-799h-274v453l-156 -287h-158z" />
    <glyph glyph-name="estimated" unicode="&#x212e;" horiz-adv-x="1464" 
d="M725 92q294 0 457 254h161q-75 -177 -254 -286t-376 -109q-132 0 -246.5 48t-200 136t-135 221.5t-49.5 296.5q0 161 50.5 294t138.5 221t206 136t252 48t254.5 -56.5t208 -154.5t139 -240t51.5 -305h-1015v-350q139 -154 358 -154zM367 737h729v318q-178 155 -381 155
q-211 0 -348 -155v-318z" />
    <glyph glyph-name="product" unicode="&#x220f;" horiz-adv-x="1730" 
d="M317 -332v1313h-235v348h1567v-348h-238v-1313h-369v1313h-356v-1313h-369z" />
    <glyph glyph-name="summation" unicode="&#x2211;" horiz-adv-x="1269" 
d="M82 983v348h1106v-348h-621l416 -471l-416 -473h621v-348h-1106v348l416 473z" />
    <glyph glyph-name="minus" unicode="&#x2212;" horiz-adv-x="768" 
d="M82 479v266h604v-266h-604z" />
    <glyph glyph-name="radical" unicode="&#x221a;" horiz-adv-x="1507" 
d="M915 0h-444l-233 655h-218v349h445l240 -676l450 1044h352z" />
    <glyph glyph-name="infinity" unicode="&#x221e;" horiz-adv-x="1812" 
d="M82 629q0 177 118 285t312 108q234 0 395 -172q161 172 393 172q194 0 312.5 -108t118.5 -285q0 -175 -119 -283t-312 -108q-229 0 -395 172q-166 -172 -393 -172q-193 0 -311.5 108t-118.5 283zM346 629q0 -66 48.5 -104t127.5 -38q77 0 132 35.5t100 106.5
q-44 72 -99.5 107.5t-132.5 35.5q-80 0 -128 -37.5t-48 -105.5zM1466 629q0 68 -48 105.5t-128 37.5q-77 0 -131.5 -35.5t-99.5 -107.5q45 -71 100 -106.5t131 -35.5q79 0 127.5 38t48.5 104z" />
    <glyph glyph-name="approxequal" unicode="&#x2248;" horiz-adv-x="1339" 
d="M690 973q84 -43 170 -43q53 0 85 22.5t32 67.5h280q0 -186 -104 -291.5t-264 -105.5q-116 0 -240 59q-84 43 -170 43q-53 0 -85 -22.5t-32 -67.5h-280q0 186 104.5 291.5t264.5 105.5q115 0 239 -59zM690 504q84 -43 170 -43q53 0 85 22.5t32 67.5h280
q0 -186 -104 -291.5t-264 -105.5q-116 0 -240 59q-84 43 -170 43q-53 0 -85 -22.5t-32 -67.5h-280q0 186 104.5 291.5t264.5 105.5q115 0 239 -59z" />
    <glyph glyph-name="notequal" unicode="&#x2260;" horiz-adv-x="1095" 
d="M82 711v245h434l53 150h289l-53 -150h209v-245h-297l-47 -127h344v-246h-432l-54 -150h-288l53 150h-211v246h299l47 127h-346z" />
    <glyph glyph-name="lessequal" unicode="&#x2264;" horiz-adv-x="1142" 
d="M82 600v279l975 260v-271l-504 -129l504 -129v-270zM82 0v256h979v-256h-979z" />
    <glyph glyph-name="greaterequal" unicode="&#x2265;" horiz-adv-x="1142" 
d="M1061 879v-279l-975 -260v270l504 129l-504 129v271zM1061 0h-979v256h979v-256z" />
    <glyph glyph-name="zero.numr" horiz-adv-x="1097" 
d="M20 866q0 229 139.5 354.5t391.5 125.5q251 0 388.5 -125.5t137.5 -354.5q0 -231 -137 -356t-389 -125q-255 0 -393 125.5t-138 355.5zM367 866q0 -192 184 -192q178 0 178 192q0 93 -45.5 142t-132.5 49q-90 0 -137 -48t-47 -143z" />
    <glyph glyph-name="one.numr" horiz-adv-x="688" 
d="M246 399v660h-226v272h566v-932h-340z" />
    <glyph glyph-name="two.numr" horiz-adv-x="972" 
d="M20 399v273q0 29 8 55.5t19.5 47t34 40t40 33t50.5 28t52.5 22.5t59 20t57 16.5t59 15t53.5 13.5q40 11 62.5 17.5t47 16.5t35 21t10.5 24q0 50 -121 50q-123 -3 -135 -68h-321q22 322 487 322q223 0 328.5 -77t105.5 -237q0 -60 -25 -108t-70.5 -80.5t-94.5 -53.5
t-113 -38q-59 -17 -141 -32t-121 -25t-39 -23h598v-273h-926z" />
    <glyph glyph-name="three.numr" horiz-adv-x="1024" 
d="M977 1065q0 -128 -146 -195q173 -55 173 -204q0 -137 -125.5 -209t-364.5 -72q-235 0 -360 81.5t-134 242.5h322q6 -68 174 -68q65 0 104 15.5t39 41.5q0 32 -18.5 47.5t-69.5 22t-159 6.5h-168v182h159q125 0 177.5 16t52.5 56q0 28 -37 45.5t-92 16.5q-142 0 -148 -66
h-321q9 164 125 243t352 79q225 0 345 -73t120 -208z" />
    <glyph glyph-name="four.numr" horiz-adv-x="1019" 
d="M526 399v152h-516v272l516 508h342v-508h142v-272h-142v-152h-342zM352 823h174v148z" />
    <glyph glyph-name="five.numr" horiz-adv-x="995" 
d="M98 737l-61 82l76 512h792v-272h-522l-8 -60q134 14 219 11q189 -6 285 -87t96 -221q0 -146 -130 -231.5t-351 -85.5q-219 0 -343.5 85.5t-130.5 225.5h318q3 -28 52.5 -42.5t111.5 -12.5q61 0 95 18t34 50q0 76 -199 73q-178 -3 -334 -45z" />
    <glyph glyph-name="six.numr" horiz-adv-x="1019" 
d="M20 858q0 228 161.5 358t459.5 130q131 0 272 -23v-281q-143 31 -245 31q-132 0 -211 -36t-90 -99q104 37 241 37q192 0 291.5 -73.5t99.5 -213.5t-122.5 -221.5t-339.5 -81.5q-255 0 -386 119.5t-131 353.5zM391 727q20 -46 56 -66t94 -20q114 0 114 55q0 26 -26 41
t-72 15q-57 0 -166 -25z" />
    <glyph glyph-name="seven.numr" horiz-adv-x="886" 
d="M215 399l330 660h-535v272h867v-272l-308 -660h-354z" />
    <glyph glyph-name="eight.numr" horiz-adv-x="1077" 
d="M57 1073q0 131 124 202t358 71q236 0 358.5 -69.5t122.5 -203.5q0 -136 -129 -199q166 -62 166 -215q0 -135 -131 -204.5t-387 -69.5q-254 0 -386.5 70t-132.5 204q0 153 166 215q-129 63 -129 199zM403 1026q0 -74 144 -74q145 0 145 74q0 64 -145 64
q-69 0 -106.5 -16.5t-37.5 -47.5zM365 709q0 -68 182 -68q94 0 138 16t44 52q0 67 -182 67t-182 -67z" />
    <glyph glyph-name="nine.numr" horiz-adv-x="1019" 
d="M999 872q0 -228 -162 -357.5t-458 -129.5q-149 0 -273 23v280q153 -29 246 -29q131 0 210 35t91 99q-107 -35 -241 -35q-192 0 -292 72.5t-100 211.5q0 142 123 223t340 81q255 0 385.5 -119.5t130.5 -354.5zM629 1006q-20 46 -55.5 65t-94.5 19q-53 0 -83.5 -14
t-30.5 -40q0 -55 98 -55q57 0 166 25z" />
    <glyph glyph-name="zero.dnom" horiz-adv-x="1097" 
d="M20 467q0 228 139.5 353.5t391.5 125.5q251 0 388.5 -125t137.5 -354q0 -231 -137 -356t-389 -125q-255 0 -393 125.5t-138 355.5zM367 467q0 -193 184 -193q178 0 178 193q0 93 -45.5 141.5t-132.5 48.5q-184 0 -184 -190z" />
    <glyph glyph-name="one.dnom" horiz-adv-x="688" 
d="M246 0v659h-226v273h566v-932h-340z" />
    <glyph glyph-name="two.dnom" horiz-adv-x="972" 
d="M20 0v272q0 29 8 55.5t19.5 47t34 40t40 33t50.5 28t52.5 22.5t59 20t57 16.5t59 15t53.5 13.5q79 21 117 38t38 42q0 49 -121 49q-124 -3 -135 -67h-321q22 321 487 321q224 0 329 -76.5t105 -236.5q0 -60 -25 -108t-70.5 -80.5t-95 -54t-112.5 -38.5q-59 -17 -141 -32
t-121 -25t-39 -23h598v-272h-926z" />
    <glyph glyph-name="three.dnom" horiz-adv-x="1024" 
d="M977 666q0 -128 -146 -195q173 -55 173 -205q0 -137 -125.5 -208.5t-364.5 -71.5q-476 0 -494 323h322q6 -67 174 -67q65 0 104 15.5t39 41.5q0 32 -18.5 47.5t-69.5 22t-159 6.5h-168v182h159q125 0 177.5 16t52.5 56q0 28 -36.5 45.5t-92.5 15.5q-142 0 -148 -65h-321
q9 164 124.5 242.5t352.5 78.5q225 0 345 -72.5t120 -207.5z" />
    <glyph glyph-name="four.dnom" horiz-adv-x="1019" 
d="M526 0v152h-516v272l516 508h342v-508h142v-272h-142v-152h-342zM352 424h174v147z" />
    <glyph glyph-name="five.dnom" horiz-adv-x="995" 
d="M98 338l-61 82l76 512h792v-273h-522l-8 -61q141 14 219 12q190 -7 285.5 -87t95.5 -220q0 -146 -130 -231.5t-351 -85.5q-219 0 -343.5 85.5t-130.5 225.5h318q3 -28 52.5 -42.5t111.5 -12.5q62 0 95.5 17.5t33.5 49.5q0 77 -199 74q-178 -3 -334 -45z" />
    <glyph glyph-name="six.dnom" horiz-adv-x="1019" 
d="M20 459q0 228 161.5 357.5t459.5 129.5q137 0 272 -22v-281q-143 31 -245 31q-132 0 -211 -36t-90 -99q101 36 241 36q192 0 291.5 -73t99.5 -213t-122.5 -221.5t-339.5 -81.5q-255 0 -386 119.5t-131 353.5zM391 328q20 -46 56 -66t94 -20q114 0 114 55q0 26 -26 40.5
t-72 14.5q-61 0 -166 -24z" />
    <glyph glyph-name="seven.dnom" horiz-adv-x="886" 
d="M215 0l330 659h-535v273h867v-273l-308 -659h-354z" />
    <glyph glyph-name="eight.dnom" horiz-adv-x="1077" 
d="M57 674q0 131 124 201.5t358 70.5q236 0 358.5 -69t122.5 -203q0 -136 -129 -199q166 -62 166 -215q0 -135 -131 -204.5t-387 -69.5q-254 0 -386.5 70t-132.5 204q0 153 166 215q-129 63 -129 199zM403 627q0 -74 144 -74q145 0 145 74q0 63 -145 63q-144 0 -144 -63z
M365 309q0 -67 182 -67q94 0 138 15.5t44 51.5q0 68 -182 68t-182 -68z" />
    <glyph glyph-name="nine.dnom" horiz-adv-x="1019" 
d="M999 473q0 -228 -162 -357.5t-458 -129.5q-155 0 -273 22v281q153 -29 246 -29q131 0 210 34.5t91 98.5q-107 -35 -241 -35q-192 0 -292 72.5t-100 212.5q0 141 122.5 222t340.5 81q255 0 385.5 -119t130.5 -354zM629 606q-20 46 -55.5 65t-94.5 19q-114 0 -114 -53
q0 -55 98 -55q61 0 166 24z" />
    <glyph glyph-name="zero.tnum" horiz-adv-x="1433" 
d="M25 668q0 325 183 504.5t513 179.5q329 0 508.5 -178.5t179.5 -505.5q0 -331 -179 -509.5t-509 -178.5q-334 0 -515 179t-181 509zM465 668q0 -322 254 -322q250 0 250 322q0 155 -64 236t-186 81q-125 0 -189.5 -80.5t-64.5 -236.5z" />
    <glyph glyph-name="one.tnum" horiz-adv-x="1433" 
d="M199 983v348h733v-983h344v-348h-1118v348h344v635h-303z" />
    <glyph glyph-name="two.tnum" horiz-adv-x="1433" 
d="M68 0v348q0 56 18 104t47.5 83.5t73.5 67t89.5 53t103.5 42t107.5 34.5t108.5 29q49 13 72 19q119 33 179.5 65t60.5 81q0 47 -51.5 72.5t-149.5 25.5q-217 0 -235 -117h-410q15 216 182.5 330.5t476.5 114.5q625 0 625 -437q0 -71 -25 -131t-64.5 -102t-99 -77.5
t-117.5 -58t-130 -42.5q-55 -16 -129.5 -33t-124 -28.5t-97 -25.5t-71 -31t-23.5 -38h875v-348h-1292z" />
    <glyph glyph-name="three.tnum" horiz-adv-x="1433" 
d="M1358 956q0 -186 -203 -284q244 -77 244 -295q0 -192 -175.5 -294.5t-504.5 -102.5q-325 0 -499 112.5t-187 331.5h409q15 -117 277 -117q111 0 176.5 29t65.5 78q0 51 -29.5 77t-104 38t-219.5 12h-264v241h250q173 0 249.5 30t76.5 97q0 52 -58 83.5t-155 31.5
q-232 0 -244 -117h-410q27 445 664 445q308 0 474.5 -103.5t166.5 -292.5z" />
    <glyph glyph-name="four.tnum" horiz-adv-x="1433" 
d="M782 0v231h-766v349l766 751h430v-751h205v-349h-205v-231h-430zM453 580h329v286z" />
    <glyph glyph-name="five.tnum" horiz-adv-x="1433" 
d="M156 504l-80 117l106 710h1100v-348h-760l-20 -143q177 21 334 18q264 -8 404 -118t140 -312q0 -209 -178.5 -328.5t-488.5 -119.5q-306 0 -478.5 117t-183.5 315h406q6 -52 81.5 -79.5t182.5 -25.5q221 3 221 127q0 133 -295 133q-123 0 -259.5 -19t-231.5 -44z" />
    <glyph glyph-name="six.tnum" horiz-adv-x="1433" 
d="M31 655q0 327 224 512t632 185q215 0 389 -33v-356q-198 41 -361 41q-198 0 -312.5 -62.5t-131.5 -179.5q155 61 369 61q274 0 417.5 -105t143.5 -306q0 -202 -171 -317t-476 -115q-359 0 -541 169t-182 506zM496 485q29 -95 91.5 -136.5t170.5 -41.5q97 0 151 29.5
t54 83.5q0 112 -177 112q-128 0 -290 -47z" />
    <glyph glyph-name="seven.tnum" horiz-adv-x="1433" 
d="M410 0l485 983h-782v348h1206v-348l-461 -983h-448z" />
    <glyph glyph-name="eight.tnum" horiz-adv-x="1433" 
d="M72 967q0 187 166 286t481 99t480 -98t165 -287q0 -197 -180 -285q233 -86 233 -309q0 -195 -176.5 -294t-521.5 -99q-343 0 -522 100t-179 293q0 222 236 309q-182 87 -182 285zM500 909q0 -123 219 -123q217 0 217 123q0 55 -56 85t-161 30q-107 0 -163 -29.5
t-56 -85.5zM446 430q0 -123 273 -123q270 0 270 123t-270 123q-273 0 -273 -123z" />
    <glyph glyph-name="nine.tnum" horiz-adv-x="1433" 
d="M1401 676q0 -327 -223.5 -511.5t-632.5 -184.5q-221 0 -389 32v357q198 -41 360 -41q198 0 313 62t132 179q-155 -61 -369 -61q-274 0 -417.5 105.5t-143.5 306.5q0 202 171 317t476 115q359 0 541 -169.5t182 -506.5zM936 846q-29 95 -91.5 136.5t-170.5 41.5
q-97 0 -151 -29.5t-54 -83.5q0 -112 176 -112q129 0 291 47z" />
    </font>
</defs>
</svg>
